<?xml version="1.0" encoding="UTF-8" standalone="no"?>
<!-- Created with Inkscape (http://www.inkscape.org/) -->

<svg
   width="116.85601mm"
   height="50.80003mm"
   viewBox="0 0 441.66052 192.00012"
   version="1.1"
   id="svg1"
   inkscape:version="1.3.2 (091e20e, 2023-11-25, custom)"
   sodipodi:docname="half-empty-O4.svg"
   inkscape:export-filename="export\half-horizontal.svg"
   inkscape:export-xdpi="300"
   inkscape:export-ydpi="300"
   xmlns:inkscape="http://www.inkscape.org/namespaces/inkscape"
   xmlns:sodipodi="http://sodipodi.sourceforge.net/DTD/sodipodi-0.dtd"
   xmlns:xlink="http://www.w3.org/1999/xlink"
   xmlns="http://www.w3.org/2000/svg"
   xmlns:svg="http://www.w3.org/2000/svg">
  <sodipodi:namedview
     id="namedview1"
     pagecolor="#ffffff"
     bordercolor="#000000"
     borderopacity="0.25"
     inkscape:showpageshadow="2"
     inkscape:pageopacity="0.0"
     inkscape:pagecheckerboard="0"
     inkscape:deskcolor="#d1d1d1"
     inkscape:document-units="mm"
     inkscape:zoom="2.0586052"
     inkscape:cx="224.66668"
     inkscape:cy="222.48074"
     inkscape:window-width="2677"
     inkscape:window-height="1443"
     inkscape:window-x="0"
     inkscape:window-y="0"
     inkscape:window-maximized="0"
     showguides="true"
     inkscape:current-layer="layer2">
    <sodipodi:guide
       position="-16.27893,792.18889"
       orientation="0,1"
       id="guide7"
       inkscape:locked="false"
       inkscape:label=""
       inkscape:color="rgb(0,134,229)" />
    <sodipodi:guide
       position="2.6187077,17.385727"
       orientation="-1,0"
       id="guide10"
       inkscape:locked="false"
       inkscape:label=""
       inkscape:color="rgb(0,134,229)" />
  </sodipodi:namedview>
  <defs
     id="defs1" />
  <g
     inkscape:groupmode="layer"
     id="layer4"
     inkscape:label="Hexes-Bottom"
     style="display:none"
     sodipodi:insensitive="true"
     transform="translate(-16.27893,-17.385727)">
    <path
       sodipodi:type="star"
       style="fill:none;stroke:#cccccc;stroke-width:0.866308;stroke-dasharray:none"
       id="path6-7-3"
       inkscape:flatsided="true"
       sodipodi:sides="6"
       sodipodi:cx="95.695854"
       sodipodi:cy="483.33698"
       sodipodi:r1="62.518642"
       sodipodi:r2="54.142731"
       sodipodi:arg1="1.0471976"
       sodipodi:arg2="1.5707963"
       inkscape:rounded="0"
       inkscape:randomized="0"
       d="m 126.95517,537.47971 -62.51864,0 -31.259318,-54.14274 31.259324,-54.14273 62.518644,0 31.25932,54.14274 z"
       transform="matrix(0.87257031,0,0,0.872584,71.757842,-166.63402)"
       inkscape:label="hex0203"
       inkscape:tile-cx="155.25921"
       inkscape:tile-cy="255.1181"
       inkscape:tile-w="109.10383"
       inkscape:tile-h="94.488169"
       inkscape:tile-x0="100.70729"
       inkscape:tile-y0="207.87401" />
    <use
       x="0"
       y="0"
       inkscape:tiled-clone-of="#path6-7-3"
       xlink:href="#path6-7-3"
       id="use5" />
    <use
       x="0"
       y="0"
       inkscape:tiled-clone-of="#path6-7-3"
       xlink:href="#path6-7-3"
       transform="translate(163.65574)"
       id="use7" />
  </g>
  <g
     inkscape:groupmode="layer"
     id="layer2"
     inkscape:label="Hexes-Top"
     transform="translate(-16.27893,-17.385727)">
    <path
       sodipodi:type="star"
       style="fill:none;stroke:#999999;stroke-width:0.866308;stroke-dasharray:none;stroke-opacity:1"
       id="path6-5"
       inkscape:flatsided="true"
       sodipodi:sides="6"
       sodipodi:cx="95.695854"
       sodipodi:cy="483.33698"
       sodipodi:r1="62.518642"
       sodipodi:r2="54.142731"
       sodipodi:arg1="1.0471976"
       sodipodi:arg2="1.5707963"
       inkscape:rounded="0"
       inkscape:randomized="0"
       d="m 126.95517,537.47971 -62.51864,0 -31.259318,-54.14274 31.259324,-54.14273 62.518644,0 31.25932,54.14274 z"
       transform="matrix(0.87257041,0,0,0.87258402,153.62241,-308.36629)"
       inkscape:label="hex0302" />
    <path
       sodipodi:type="star"
       style="fill:none;stroke:#999999;stroke-width:0.866308;stroke-dasharray:none;stroke-opacity:1"
       id="path6"
       inkscape:flatsided="true"
       sodipodi:sides="6"
       sodipodi:cx="95.695854"
       sodipodi:cy="483.33698"
       sodipodi:r1="62.518642"
       sodipodi:r2="54.142731"
       sodipodi:arg1="1.0471976"
       sodipodi:arg2="1.5707963"
       inkscape:rounded="0"
       inkscape:randomized="0"
       d="m 126.95517,537.47971 -62.51864,0 -31.259318,-54.14274 31.259324,-54.14273 62.518644,0 31.25932,54.14274 z"
       transform="matrix(0.87257031,0,0,0.872584,71.757842,-355.61037)"
       inkscape:label="hex0201"
       inkscape:tile-cx="155.25921"
       inkscape:tile-cy="66.141743"
       inkscape:tile-w="109.10383"
       inkscape:tile-h="94.488169"
       inkscape:tile-x0="100.70729"
       inkscape:tile-y0="18.897658" />
    <path
       style="display:inline;fill:none;stroke:#999999;stroke-width:0.755932;stroke-opacity:1"
       d="M 100.73197,160.62992 H 46.178269"
       id="path6-5-2-6-8-3-6"
       inkscape:label="lineb0103"
       inkscape:tile-cx="73.455121"
       inkscape:tile-cy="160.62992"
       inkscape:tile-w="54.553702"
       inkscape:tile-h="0"
       inkscape:tile-x0="46.17827"
       inkscape:tile-y0="160.62992" />
    <use
       x="0"
       y="0"
       inkscape:tiled-clone-of="#path6"
       xlink:href="#path6"
       id="use1" />
    <use
       x="0"
       y="0"
       inkscape:tiled-clone-of="#path6"
       xlink:href="#path6"
       transform="translate(0,94.488169)"
       id="use2" />
    <use
       x="0"
       y="0"
       inkscape:tiled-clone-of="#path6"
       xlink:href="#path6"
       transform="translate(163.65574)"
       id="use3" />
    <use
       x="0"
       y="0"
       inkscape:tiled-clone-of="#path6"
       xlink:href="#path6"
       transform="translate(163.65574,94.488169)"
       id="use4" />
    <use
       x="0"
       y="0"
       inkscape:tiled-clone-of="#path6-5-2-6-8-3-6"
       xlink:href="#path6-5-2-6-8-3-6"
       id="use11" />
    <use
       x="0"
       y="0"
       inkscape:tiled-clone-of="#path6-5-2-6-8-3-6"
       xlink:href="#path6-5-2-6-8-3-6"
       transform="translate(327.32221)"
       id="use12" />
  </g>
  <g
     inkscape:groupmode="layer"
     id="layer6"
     inkscape:label="Walls - Vertical"
     style="display:inline"
     transform="translate(-16.27893,-17.385727)">
    <g
       id="g8"
       inkscape:label="vert right A"
       style="display:none">
      <rect
         style="display:inline;fill:#000000;stroke:none;stroke-width:0.94488"
         id="rect140-6-32-6-0-4-4-1"
         width="94.48819"
         height="30.236221"
         x="255.11812"
         y="-373.52316"
         transform="rotate(90)"
         inkscape:label="vert right A4" />
      <rect
         style="display:inline;fill:#000000;stroke:none;stroke-width:0.94488"
         id="rect140-6-32-6-0-8-5"
         width="94.48819"
         height="30.236221"
         x="160.62993"
         y="-373.52316"
         transform="rotate(90)"
         inkscape:label="vert right A3" />
      <rect
         style="display:none;fill:#000000;stroke:none;stroke-width:0.94488"
         id="rect140-6-32-6-3-8"
         width="94.48819"
         height="30.236221"
         x="66.141731"
         y="-373.52316"
         transform="rotate(90)"
         inkscape:label="vert right A2" />
    </g>
  </g>
  <g
     inkscape:groupmode="layer"
     id="layer8"
     inkscape:label="Walls - Horizontal"
     style="display:inline"
     transform="translate(-16.27893,-17.385727)">
    <g
       id="g2"
       inkscape:label="hor 2"
       style="display:none">
      <path
         id="rect140-6-32-4-4-4"
         style="display:inline;stroke-width:0.927549"
         inkscape:label="hor right A2"
         d="m 343.28694,160.62992 v 30.23622 h 100.7685 l -15.9748,-30.23622 z"
         sodipodi:nodetypes="ccccc" />
      <rect
         style="display:inline;fill:#000000;stroke:none;stroke-width:0.698261"
         id="rect140-6-32-8-4-2-3"
         width="30.236221"
         height="51.601891"
         x="160.62993"
         y="-343.28693"
         transform="rotate(90)"
         inkscape:label="hor right B2" />
      <rect
         style="display:inline;fill:#000000;stroke:none;stroke-width:1.01538"
         id="rect140-6-32-8-4-5-5"
         width="30.236221"
         height="109.11496"
         x="160.62993"
         y="-291.68503"
         transform="rotate(90)"
         inkscape:label="hor mid 2" />
      <rect
         style="display:inline;fill:#000000;stroke:none;stroke-width:0.698261"
         id="rect140-6-32-8-4-2-4"
         width="30.236221"
         height="51.601891"
         x="160.62993"
         y="-182.57388"
         transform="rotate(90)"
         inkscape:label="hor left B2" />
      <path
         id="rect140-6-32-4-4"
         style="display:inline;stroke-width:0.934349"
         inkscape:label="hor left A2"
         d="m 130.97197,160.62992 v 30.23622 H 28.72063 l 17.457639,-30.23622 z"
         sodipodi:nodetypes="ccccc" />
    </g>
    <g
       id="g1"
       inkscape:label="hor 1"
       style="display:none">
      <path
         id="rect140-6-32-4-2"
         style="display:inline;stroke-width:0.8359"
         inkscape:label="hor right B1"
         d="m 291.02363,35.905512 v 30.23622 h 81.83811 L 355.4041,35.905512 Z"
         sodipodi:nodetypes="ccccc" />
      <rect
         style="display:inline;fill:#000000;stroke:none;stroke-width:1.01538"
         id="rect140-6-32-8-4-5"
         width="30.236221"
         height="109.11496"
         x="35.905514"
         y="-291.68503"
         transform="rotate(90)"
         inkscape:label="hor mid 1" />
      <path
         id="rect140-6-32-4"
         style="display:inline;stroke-width:0.8359"
         inkscape:label="hor left B1"
         d="m 182.57386,35.905513 v 30.23622 l -81.83811,-2e-6 17.45764,-30.236219 z"
         sodipodi:nodetypes="ccccc" />
    </g>
  </g>
  <g
     inkscape:groupmode="layer"
     id="layer9"
     inkscape:label="Doors - Vertical 1"
     transform="translate(-16.27893,-17.385727)">
    <rect
       style="display:none;fill:#000000;stroke:none;stroke-width:0.668131"
       id="rect140-6-32-6-07"
       width="94.48819"
       height="15.118111"
       x="66.141731"
       y="-175.01103"
       transform="rotate(90)"
       inkscape:label="vert left 2" />
    <rect
       style="display:none;fill:#ffffff;stroke:#000000;stroke-width:3.27317;stroke-dasharray:none"
       id="rect140-6-32-6-07-4"
       width="75.590553"
       height="22.677166"
       x="75.590553"
       y="-178.79056"
       transform="rotate(90)"
       inkscape:label="vert left 2 door" />
  </g>
  <g
     inkscape:groupmode="layer"
     id="layer7"
     inkscape:label="Wall Texture"
     style="display:none"
     transform="translate(-16.27893,-17.385727)">
    <g
       id="g142">
      <path
         id="use115-8"
         style="fill:#c8beb7;stroke:#666666;stroke-width:1.79527;stroke-linecap:round;stroke-linejoin:round"
         d="m 182.22131,19.87883 c 0,0 0.0395,4.85222 0.3458,7.25325 0.3064,2.40142 1.57033,4.68941 1.48675,7.10885 -0.0842,2.43846 -1.68049,4.62395 -1.9893,7.04425 -0.30881,2.42022 1.83277,5.54477 0.15675,7.31785 -0.82407,0.87179 -2.39751,0.15777 -3.5967,0.1254 -1.19907,-0.0324 -2.38484,-0.3154 -3.58435,-0.3192 -1.19917,-0.004 -2.38656,0.26405 -3.5853,0.2964 -1.19863,0.0324 -2.87562,0.85614 -3.59575,-0.1026 -1.46395,-1.94902 1.42104,-4.6765 1.83635,-7.07845 0.41528,-2.4018 0.55235,-4.84804 0.64695,-7.28365 0.0955,-2.45879 0.33843,-4.95683 -0.0808,-7.3815 -0.41927,-2.42485 -3.8049,-4.95845 -2.40255,-6.9806 0.68436,-0.98683 2.40346,-0.0122 3.60145,-0.0959 1.19792,-0.0837 2.37922,-0.43866 3.5796,-0.40565 1.20525,0.0331 2.36352,0.5202 3.5663,0.6042 1.20247,0.084 3.61475,-0.1026 3.61475,-0.1026"
         sodipodi:nodetypes="csssssssssssssssc" />
      <path
         id="use116-6"
         style="fill:#c8beb7;stroke:#666666;stroke-width:1.79527;stroke-linecap:round;stroke-linejoin:round"
         d="m 167.11672,36.08683 c 0,0 -1.54566,4.66228 -1.74135,7.087 -0.1957,2.42491 0.5439,4.84261 0.58234,7.2751 0.0383,2.42122 -0.54532,4.84243 -0.35054,7.2561 0.19478,2.41368 3.04123,5.23044 1.50955,7.106 -0.76037,0.93108 -2.40639,-0.10369 -3.6062,-0.0294 -1.19975,0.0743 -2.37361,0.43008 -3.57486,0.47405 -1.19826,0.0439 -2.39422,-0.1368 -3.59099,-0.2109 -1.19692,-0.0741 -2.82355,0.68858 -3.59005,-0.2337 -1.53841,-1.85106 0.60624,-4.77585 0.8569,-7.16965 0.25068,-2.39407 0.49891,-4.78984 0.64695,-7.19245 0.14943,-2.42527 0.49626,-4.86889 0.2432,-7.28555 -0.25304,-2.41646 -2.96962,-4.97688 -1.74705,-7.07655 0.61377,-1.0541 2.31215,-0.84031 3.52259,-0.99085 1.21059,-0.15056 2.43858,0.0866 3.65845,0.0978 1.21663,0.0112 2.44253,-0.18055 3.64991,-0.0304 1.20733,0.15014 3.53115,0.9234 3.53115,0.9234"
         sodipodi:nodetypes="csssssssssssssssc" />
      <path
         id="use117-5"
         style="fill:#c8beb7;stroke:#666666;stroke-width:1.79527;stroke-linecap:round;stroke-linejoin:round"
         d="m 182.68278,51.88533 c 0,0 0.57108,4.77478 0.7923,7.1687 0.22124,2.39422 0.73046,4.79695 0.53485,7.1934 -0.19764,2.4213 -1.48836,4.6651 -1.7119,7.08415 -0.22354,2.41906 1.95408,5.42348 0.38475,7.27795 -0.77576,0.91672 -2.382,0.31835 -3.57959,0.40755 -1.19791,0.0892 -2.40452,0.22892 -3.60145,0.1273 -1.20591,-0.10239 -2.34801,-0.64823 -3.55491,-0.73815 -1.20727,-0.0899 -2.7181,1.00394 -3.62615,0.2033 -1.79789,-1.58523 -0.38931,-4.77905 -0.4997,-7.17345 -0.11038,-2.39429 -0.3721,-4.80101 -0.16245,-7.18865 0.21204,-2.41486 1.31718,-4.70913 1.42881,-7.1307 0.11162,-2.4214 -2.14486,-5.23735 -0.76666,-7.2314 0.69209,-1.00135 2.3227,-0.79403 3.53305,-0.9234 1.21022,-0.12935 2.43699,0.0342 3.64801,0.1558 1.19923,0.12044 2.3726,0.43905 3.57104,0.56715 1.19836,0.12809 3.61,0.20045 3.61,0.20045"
         sodipodi:nodetypes="csssssssssssssssc" />
      <path
         id="use118-8"
         style="fill:#c8beb7;stroke:#666666;stroke-width:1.79527;stroke-linecap:round;stroke-linejoin:round"
         d="m 167.11672,66.24743 c 0,0 1.3001,4.70411 1.43924,7.12215 0.13914,2.41794 -0.38535,4.8287 -0.61274,7.23995 -0.22535,2.38962 -0.60691,4.76579 -0.74481,7.16205 -0.1379,2.39621 1.83038,5.74927 -0.0817,7.20005 -0.97064,0.73647 -2.31921,-0.81892 -3.53115,-0.9443 -1.21202,-0.12539 -2.43176,0.17275 -3.64991,0.2014 -1.21032,0.0285 -2.42761,-0.15398 -3.63184,-0.0294 -1.20433,0.12459 -2.72818,1.66221 -3.5492,0.77235 -1.65905,-1.79814 1.79408,-4.60019 2.1318,-7.02335 0.33773,-2.42321 -0.12778,-4.89212 -0.13015,-7.33875 -0.002,-2.44592 0.45353,-4.91434 0.1159,-7.33685 -0.33762,-2.4224 -3.59664,-5.07735 -2.11755,-7.02525 0.72633,-0.95655 2.40406,-0.006 3.6024,0.0751 1.19794,0.0808 2.37816,0.43047 3.57864,0.40945 1.20349,-0.0211 2.37011,-0.45478 3.57106,-0.5358 1.20073,-0.081 3.61,0.0513 3.61,0.0513"
         sodipodi:nodetypes="csssssssssssssssc" />
      <path
         id="use119-2"
         style="fill:#c8beb7;stroke:#666666;stroke-width:1.79527;stroke-linecap:round;stroke-linejoin:round"
         d="m 182.68278,82.04593 c 0,0 2.04543,4.54333 2.43485,6.9749 0.38946,2.43182 0.0509,4.93141 -0.1349,7.3872 -0.18299,2.41825 -0.5798,4.81679 -0.96329,7.21145 -0.38343,2.39433 0.65077,5.76142 -1.33666,7.15065 -0.98868,0.69109 -2.37075,-0.45994 -3.56915,-0.59755 -1.19846,-0.13762 -2.40708,-0.28778 -3.61189,-0.22705 -1.20459,0.0607 -2.37186,0.4514 -3.57011,0.589 -1.19833,0.13761 -2.76858,1.09894 -3.61095,0.2356 -1.68064,-1.72246 0.40041,-4.79668 0.64695,-7.19055 0.24655,-2.3939 0.63004,-4.7735 0.8322,-7.17155 0.20461,-2.42709 0.63429,-4.87407 0.38475,-7.29695 -0.24953,-2.42281 -3.12958,-4.9842 -1.8639,-7.06515 0.63047,-1.03658 2.34214,-0.70428 3.55206,-0.7942 1.20944,-0.0899 2.42135,0.14895 3.629,0.2603 1.196,0.11028 2.38277,0.3147 3.58054,0.40375 1.19765,0.089 3.6005,0.13015 3.6005,0.13015"
         sodipodi:nodetypes="csssssssssssssssc" />
      <path
         id="use120-5"
         style="fill:#c8beb7;stroke:#666666;stroke-width:1.79527;stroke-linecap:round;stroke-linejoin:round"
         d="m 167.11672,96.40803 c 0,0 -0.54571,4.77325 -0.73055,7.16775 -0.18482,2.3943 -0.58569,4.80191 -0.3781,7.19435 0.20986,2.41857 1.44242,4.67794 1.62925,7.0984 0.18681,2.42025 1.15906,5.51121 -0.5206,7.2637 -0.83609,0.87235 -2.40438,0.24776 -3.60145,0.4123 -1.19723,0.16456 -2.37355,0.49814 -3.57961,0.57475 -1.21229,0.077 -2.43887,0.0476 -3.64229,-0.1178 -1.20333,-0.16541 -2.92447,0.17862 -3.53875,-0.86925 -1.23378,-2.10463 1.68773,-4.62906 1.94845,-7.0547 0.26071,-2.42556 0.002,-4.90201 -0.4047,-7.3074 -0.40737,-2.40945 -1.76232,-4.6165 -2.0235,-7.04615 -0.2612,-2.42989 -1.24381,-5.58335 0.47975,-7.31595 0.8566,-0.86109 2.42399,-0.35469 3.63469,-0.25745 1.21048,0.0972 2.33533,0.74394 3.54635,0.8341 1.19744,0.0891 2.39315,-0.20029 3.59006,-0.2964 1.19679,-0.0961 3.591,-0.28025 3.591,-0.28025"
         sodipodi:nodetypes="csssssssssssssssc" />
      <path
         id="use121-4"
         style="fill:#c8beb7;stroke:#666666;stroke-width:1.79527;stroke-linecap:round;stroke-linejoin:round"
         d="m 182.68278,112.20653 c 0,0 -0.60057,4.78934 -0.90915,7.18295 -0.3086,2.39377 -0.93922,4.76557 -0.9424,7.17915 -0.003,2.41339 0.61482,4.78747 0.9234,7.18105 0.3086,2.39378 2.57523,5.4168 0.92815,7.18105 -0.81983,0.87815 -2.40048,-0.11524 -3.59764,-0.21565 -1.1972,-0.10041 -2.38201,-0.38158 -3.5834,-0.38665 -1.20097,-0.005 -2.38852,0.25587 -3.5853,0.35625 -1.19719,0.10042 -2.68377,1.02811 -3.59576,0.24605 -1.82554,-1.56547 -0.63693,-4.78394 -0.61084,-7.18865 0.0261,-2.40463 0.76837,-4.76868 0.76664,-7.17345 -0.002,-2.40514 -0.75101,-4.76845 -0.7771,-7.17345 -0.0261,-2.40501 -1.19779,-5.61523 0.6213,-7.18865 0.90736,-0.78481 2.39326,0.21854 3.59291,0.20995 1.19919,-0.009 2.38897,-0.27007 3.58815,-0.26125 1.20091,0.009 2.38817,0.30589 3.58909,0.31445 1.20049,0.009 3.59195,-0.26315 3.59195,-0.26315"
         sodipodi:nodetypes="csssssssssssssssc" />
      <path
         id="use122-2"
         style="fill:#c8beb7;stroke:#666666;stroke-width:1.79527;stroke-linecap:round;stroke-linejoin:round"
         d="m 167.11672,126.56863 c 0,0 0.49933,4.84209 0.3021,7.2542 -0.1972,2.41182 -1.37045,4.69035 -1.4763,7.1079 -0.10512,2.40092 0.64777,4.76492 0.8436,7.16015 0.19582,2.39519 2.24393,5.74784 0.3306,7.20195 -0.97723,0.74268 -2.28768,-0.94859 -3.49885,-1.1476 -1.21121,-0.19901 -2.4603,-0.14877 -3.68221,-0.0323 -1.20815,0.11516 -2.37157,0.52238 -3.56914,0.71915 -1.19766,0.19679 -2.68128,1.23989 -3.6119,0.46075 -1.83691,-1.53791 -0.33834,-4.78257 -0.35815,-7.1782 -0.0198,-2.39588 0.17319,-4.78885 0.2394,-7.1839 0.0661,-2.39303 0.1379,-4.78624 0.1577,-7.1801 0.0198,-2.39395 -1.84586,-5.61156 -0.0389,-7.182 0.90825,-0.78937 2.37173,0.43668 3.572,0.5225 1.19995,0.0858 2.41014,0.0905 3.60904,-0.009 1.20095,-0.0997 2.36525,-0.50107 3.56726,-0.5871 1.20177,-0.086 3.6138,0.0731 3.6138,0.0731"
         sodipodi:nodetypes="csssssssssssssssc" />
      <path
         id="use123-1"
         style="fill:#c8beb7;stroke:#666666;stroke-width:1.79527;stroke-linecap:round;stroke-linejoin:round"
         d="m 182.68278,142.36713 c 0,0 1.00273,4.72899 1.2502,7.1288 0.24744,2.3996 0.52111,4.8385 0.23085,7.2333 -0.2938,2.42403 -1.72553,4.62486 -1.976,7.05375 -0.25046,2.42882 2.18076,5.54202 0.49495,7.30835 -0.84477,0.88512 -2.46165,0.11624 -3.66985,-0.077 -1.20833,-0.19326 -2.2875,-1.07305 -3.51119,-1.0716 -1.22393,10e-4 -2.30075,0.88684 -3.50931,1.08015 -1.20876,0.19335 -2.78302,0.91022 -3.67175,0.0684 -1.7647,-1.67155 0.0808,-4.88069 -0.25934,-7.28745 -0.34023,-2.40704 -1.70371,-4.64461 -1.7708,-7.07465 -0.0668,-2.41956 1.03302,-4.73404 1.3718,-7.1307 0.33877,-2.39661 -1.27348,-5.77312 0.65834,-7.2314 0.96635,-0.72948 2.37136,0.49766 3.56915,0.6745 1.19783,0.17685 2.40659,0.50095 3.61191,0.3857 1.21811,-0.11647 2.2997,-0.89574 3.51025,-1.07445 1.21049,-0.1787 3.67079,0.0143 3.67079,0.0143"
         sodipodi:nodetypes="csssssssssssssssc" />
      <path
         id="use124-5"
         style="fill:#c8beb7;stroke:#666666;stroke-width:1.79527;stroke-linecap:round;stroke-linejoin:round"
         d="m 167.11672,156.72923 c 0,0 -0.24096,4.84545 -0.58141,7.24375 -0.3404,2.39796 -1.31063,4.7008 -1.45729,7.11835 -0.14667,2.41771 0.24572,4.84468 0.58614,7.2428 0.34039,2.39795 2.78945,5.0997 1.45256,7.1193 -0.67024,1.01251 -2.37253,0.52333 -3.5701,0.7239 -1.19751,0.20056 -2.39714,0.50882 -3.61096,0.4788 -1.21335,-0.03 -2.38445,-0.45597 -3.5815,-0.65645 -1.19691,-0.20046 -2.70407,0.27285 -3.59954,-0.54625 -1.79173,-1.63892 -1.43727,-4.6659 -1.72901,-7.07655 -0.29177,-2.41093 -0.30534,-4.87518 -0.009,-7.28555 0.29653,-2.41189 1.48272,-4.6584 1.7746,-7.07085 0.29193,-2.41285 -1.64761,-5.47099 -0.0371,-7.29125 0.79611,-0.89979 2.37932,-0.36846 3.57959,-0.42085 1.19987,-0.0524 2.4008,0.0777 3.60145,0.10735 1.19813,0.0296 2.39744,0.018 3.5948,0.0703 1.19703,0.0523 3.58626,0.2432 3.58626,0.2432"
         sodipodi:nodetypes="csssssssssssssssc" />
      <path
         id="use125-3"
         style="fill:#c8beb7;stroke:#666666;stroke-width:1.79527;stroke-linecap:round;stroke-linejoin:round"
         d="m 182.68278,172.52773 c 0,0 -0.66529,4.78391 -0.63555,7.1896 0.0297,2.40597 0.65427,4.7716 0.8132,7.1725 0.1582,2.38985 0.16832,4.789 0.1387,7.1839 -0.0296,2.39487 1.35195,5.45975 -0.31635,7.1782 -0.84224,0.86756 -2.41043,0.3361 -3.6176,0.26695 -1.20716,-0.0691 -2.36021,-0.55887 -3.56344,-0.6783 -1.19562,-0.11867 -2.40478,-0.1039 -3.60431,-0.0352 -1.19954,0.0687 -2.62497,1.1798 -3.57675,0.4465 -1.92361,-1.48206 -0.56977,-4.82503 -0.97089,-7.22 -0.4011,-2.39489 -1.56409,-4.71731 -1.4345,-7.1421 0.13079,-2.44725 1.80299,-4.59582 2.2078,-7.0129 0.40479,-2.41696 -1.52745,-5.60858 0.19759,-7.3492 0.84537,-0.853 2.40035,-0.17256 3.60051,-0.1292 1.19974,0.0433 2.38031,0.41481 3.58055,0.38855 1.20552,-0.0264 2.37077,-0.50369 3.57579,-0.5472 1.20479,-0.0435 3.60525,0.28785 3.60525,0.28785"
         sodipodi:nodetypes="csssssssssssssssc" />
      <path
         id="use126-2"
         style="fill:#c8beb7;stroke:#666666;stroke-width:1.79527;stroke-linecap:round;stroke-linejoin:round"
         d="m 167.11672,186.88983 c 0,0 0.16786,4.82413 -0.0238,7.22475 -0.19167,2.40074 -0.84468,4.74509 -1.12289,7.13735 -0.28078,2.41442 -0.74353,4.84832 -0.55005,7.2713 0.19345,2.42261 3.41818,5.37529 1.6967,7.0908 -0.86077,0.85779 -2.34156,-0.67542 -3.54256,-0.8607 -1.20141,-0.18534 -2.42288,-0.25036 -3.6385,-0.247 -1.21482,0.003 -2.43406,0.0817 -3.63469,0.26695 -1.20068,0.18521 -2.582,1.57964 -3.54635,0.84075 -1.90799,-1.46191 -0.33442,-4.80674 -0.21945,-7.20765 0.11498,-2.40116 1.00671,-4.75259 0.90725,-7.15445 -0.10045,-2.42571 -1.39437,-4.69999 -1.51051,-7.125 -0.11615,-2.42512 -0.9147,-5.54119 0.82271,-7.2371 0.86407,-0.84344 2.4104,-0.16867 3.6081,-0.32205 1.19774,-0.15338 2.36604,-0.55876 3.57294,-0.59755 1.20639,-0.0388 2.40518,0.21338 3.60241,0.3667 1.19726,0.15332 3.57865,0.5529 3.57865,0.5529"
         sodipodi:nodetypes="csssssssssssssssc" />
      <path
         id="use127-1"
         style="fill:#c8beb7;stroke:#666666;stroke-width:1.79527;stroke-linecap:round;stroke-linejoin:round"
         d="m 182.68278,202.68833 c 0,0 -0.8597,4.82715 -0.71154,7.25135 0.14817,2.42421 1.53859,4.68255 1.58934,7.11075 0.0505,2.41425 -1.13614,4.71946 -1.28344,7.12975 -0.14729,2.41008 2.25369,5.67837 0.40564,7.23235 -0.9299,0.78193 -2.33824,-0.73946 -3.55014,-0.82555 -1.2118,-0.0861 -2.41714,0.26379 -3.6309,0.3154 -1.20194,0.0511 -2.40906,-0.0912 -3.60906,-0.006 -1.2,0.0852 -2.73029,1.37537 -3.572,0.51585 -1.70215,-1.73816 0.7603,-4.80625 1.19415,-7.20005 0.43391,-2.3941 1.57673,-4.73475 1.40886,-7.16205 -0.16983,-2.45568 -1.97023,-4.55851 -2.4092,-6.9806 -0.43893,-2.42189 -1.91976,-5.6267 -0.19381,-7.3815 0.84851,-0.86269 2.42716,-0.0971 3.62996,0.0351 1.20286,0.13223 2.34432,0.66464 3.5511,0.7543 1.20226,0.0893 2.41165,-0.0887 3.61,-0.2204 1.19815,-0.13172 3.57104,-0.56905 3.57104,-0.56905"
         sodipodi:nodetypes="csssssssssssssssc" />
      <path
         id="use128-6"
         style="fill:#c8beb7;stroke:#666666;stroke-width:1.79527;stroke-linecap:round;stroke-linejoin:round"
         d="m 167.11672,217.05043 c 0,0 0.58025,4.81744 0.44745,7.2276 -0.1328,2.41009 -1.10874,4.72426 -1.2388,7.1345 -0.1292,2.39417 0.32884,4.78417 0.46075,7.1782 0.13188,2.39354 2.08437,5.54967 0.3306,7.1839 -0.88474,0.82443 -2.40622,-0.2506 -3.60336,-0.4218 -1.19732,-0.17122 -2.36834,-0.62419 -3.5777,-0.60515 -1.21062,0.0191 -2.36202,0.54678 -3.56059,0.7182 -1.199,0.17148 -2.80652,1.2057 -3.62045,0.30875 -1.62672,-1.79265 1.22582,-4.72303 1.3148,-7.1421 0.089,-2.41927 -0.51844,-4.81399 -0.78661,-7.22 -0.26609,-2.38738 -0.72774,-4.75961 -0.81604,-7.16015 -0.0883,-2.40094 -1.60005,-5.71597 0.28785,-7.20195 0.95004,-0.74778 2.35144,0.61636 3.55679,0.7106 1.20543,0.0943 2.41547,-0.1772 3.62425,-0.14915 1.21685,0.0282 2.42408,0.41408 3.63755,0.3192 1.2134,-0.0949 3.54351,-0.88065 3.54351,-0.88065"
         sodipodi:nodetypes="csssssssssssssssc" />
      <path
         id="use129-3"
         style="fill:#c8beb7;stroke:#666666;stroke-width:1.79527;stroke-linecap:round;stroke-linejoin:round"
         d="m 182.68278,232.84893 c 0,0 -0.6938,4.80245 -1.08775,7.19625 -0.39398,2.39398 -1.21762,4.74037 -1.27585,7.16585 -0.0583,2.42684 0.53679,4.82754 0.931,7.22285 0.39415,2.39497 2.88931,5.1978 1.4326,7.13925 -0.72903,0.97163 -2.43098,0.12159 -3.6309,0.31065 -1.19979,0.18905 -2.34379,0.67953 -3.55014,0.8208 -1.21941,0.1428 -2.47037,0.21298 -3.68315,0.0219 -1.21275,-0.19108 -2.89177,-0.0857 -3.49791,-1.1533 -1.19791,-2.10996 1.22963,-4.70405 1.58555,-7.1041 0.3559,-2.39988 0.68195,-4.83578 0.54436,-7.258 -0.13735,-2.41805 -1.00512,-4.7416 -1.36041,-7.13735 -0.35528,-2.39567 -2.22509,-5.2891 -0.7695,-7.22475 0.72963,-0.97027 2.38928,-0.43207 3.58626,-0.6346 1.19678,-0.2025 2.38283,-0.64684 3.5948,-0.58045 1.21833,0.0667 2.32525,0.77114 3.5283,0.9747 1.20311,0.20357 3.65274,0.24035 3.65274,0.24035"
         sodipodi:nodetypes="csssssssssssssssc" />
      <path
         id="use130-9"
         style="fill:#c8beb7;stroke:#666666;stroke-width:1.79527;stroke-linecap:round;stroke-linejoin:round"
         d="m 167.11672,247.21103 c 0,0 1.16413,4.73094 1.59504,7.1269 0.43086,2.39568 1.00439,4.80114 0.988,7.2352 -0.0164,2.433 -0.65421,4.82346 -1.08489,7.2181 -0.43069,2.39471 0.43448,5.6658 -1.49815,7.144 -0.9602,0.73442 -2.42095,-0.0608 -3.62046,-0.2109 -1.19945,-0.15011 -2.35214,-0.65893 -3.5606,-0.6878 -1.20581,-0.0288 -2.38468,0.36607 -3.5815,0.51585 -1.19727,0.14984 -2.77905,1.26757 -3.59954,0.38285 -1.64122,-1.7697 1.10183,-4.71715 1.3053,-7.12215 0.20346,-2.40491 -0.12788,-4.82674 -0.0902,-7.23995 0.0378,-2.42167 0.52146,-4.84561 0.3173,-7.25895 -0.20418,-2.41356 -2.80246,-5.04068 -1.53235,-7.10315 0.63807,-1.03613 2.32846,-0.7464 3.53305,-0.91865 1.20428,-0.1722 2.44059,-0.25711 3.64799,-0.1083 1.21087,0.14924 2.31487,0.82101 3.52261,0.9937 1.20725,0.17262 3.65845,0.0333 3.65845,0.0333"
         sodipodi:nodetypes="csssssssssssssssc" />
      <path
         id="use131-6"
         style="fill:#c8beb7;stroke:#666666;stroke-width:1.79527;stroke-linecap:round;stroke-linejoin:round"
         d="m 182.68278,263.00953 c 0,0 -0.40344,4.94315 -0.0143,7.3682 0.38914,2.42508 2.13369,4.54479 2.31895,6.9939 0.18287,2.41758 -0.8404,4.77579 -1.22455,7.16965 -0.38413,2.39374 0.59478,5.43969 -1.08015,7.19245 -0.8355,0.87433 -2.36036,0.54545 -3.55964,0.7011 -1.19952,0.15568 -2.42004,0.37163 -3.6214,0.23085 -1.21566,-0.14245 -2.29742,-0.91691 -3.51121,-1.07445 -1.21402,-0.15757 -2.76359,0.96552 -3.66985,0.1425 -1.77376,-1.61084 -0.30731,-4.78256 -0.41229,-7.1763 -0.10499,-2.39406 -0.0778,-4.79352 -0.21756,-7.1858 -0.14096,-2.41221 -0.7319,-4.80789 -0.62605,-7.2219 0.10586,-2.41428 -0.53807,-5.52105 1.2559,-7.1402 0.89513,-0.8079 2.41008,-0.12257 3.6081,-0.25935 1.19777,-0.13675 2.37019,-0.47861 3.57296,-0.5605 1.20742,-0.0822 2.42754,-0.066 3.62994,0.0713 1.2019,0.13725 3.5511,0.7486 3.5511,0.7486"
         sodipodi:nodetypes="csssssssssssssssc" />
      <path
         id="use132-2"
         style="fill:#c8beb7;stroke:#666666;stroke-width:1.79527;stroke-linecap:round;stroke-linejoin:round"
         d="m 167.11672,277.37163 c 0,0 1.21648,4.7697 1.178,7.20195 -0.0385,2.43193 -1.19108,4.73735 -1.40505,7.16015 -0.21062,2.38477 0.0885,4.7873 0.12635,7.18105 0.0378,2.39362 1.77482,5.46986 0.1007,7.18105 -0.84354,0.86222 -2.41745,-0.0824 -3.61856,0.0285 -1.20108,0.11091 -2.35666,0.66376 -3.5625,0.6346 -1.21223,-0.0293 -2.3389,-0.69886 -3.54635,-0.81035 -1.20742,-0.11149 -2.67907,0.89363 -3.63469,0.14725 -1.91296,-1.49412 -1.08677,-4.73485 -1.47631,-7.1307 -0.38955,-2.39594 -0.86745,-4.80401 -0.85879,-7.2314 0.009,-2.42664 0.52067,-4.82765 0.9101,-7.22285 0.38944,-2.39524 -0.63934,-5.86358 1.425,-7.13925 1.03828,-0.64161 2.32978,0.7551 3.53209,0.9652 1.20193,0.21003 2.42887,0.27745 3.64895,0.28975 1.22282,0.0123 2.45763,-0.006 3.66226,-0.2166 1.20468,-0.21052 3.5188,-1.03835 3.5188,-1.03835"
         sodipodi:nodetypes="csssssssssssssssc" />
      <path
         id="use133-1"
         style="fill:#c8beb7;stroke:#666666;stroke-width:1.79527;stroke-linecap:round;stroke-linejoin:round"
         d="m 182.68278,293.17013 c 0,0 -1.63955,4.62914 -1.99405,7.0433 -0.35447,2.41401 -0.41744,4.89772 -0.11494,7.3188 0.30207,2.41769 1.55551,4.64501 1.90949,7.05565 0.35397,2.41054 1.7716,5.44513 0.1995,7.30645 -0.77617,0.91896 -2.3745,0.40313 -3.57294,0.50635 -1.19884,0.10326 -2.40831,0.20366 -3.6081,0.1121 -1.20329,-0.0918 -2.35732,-0.55668 -3.55966,-0.66025 -1.20276,-0.10361 -2.64608,0.75322 -3.6214,0.0418 -1.9786,-1.44324 -1.74743,-4.60796 -2.16314,-7.02145 -0.41572,-2.41353 -0.39959,-4.89319 -0.31065,-7.34065 0.0883,-2.43093 0.42404,-4.85222 0.83694,-7.24945 0.41296,-2.39755 -0.19847,-5.51566 1.63685,-7.11265 0.90983,-0.79169 2.39888,-0.35541 3.6043,-0.31635 1.20559,0.0391 2.37976,0.40025 3.57676,0.5491 1.19798,0.14897 2.39867,0.383 3.60524,0.3439 1.2067,-0.0391 3.5758,-0.57665 3.5758,-0.57665"
         sodipodi:nodetypes="csssssssssssssssc" />
      <path
         id="use134-1"
         style="fill:#c8beb7;stroke:#666666;stroke-width:1.79527;stroke-linecap:round;stroke-linejoin:round"
         d="m 167.11672,307.53223 c 0,0 0.1611,4.81818 0.40565,7.2143 0.24456,2.39622 1.15548,4.74102 1.0602,7.1478 -0.0959,2.42327 -1.38685,4.67722 -1.63306,7.08985 -0.24617,2.4122 1.73187,5.41992 0.16721,7.27225 -0.77648,0.91923 -2.37103,0.44687 -3.572,0.52155 -1.20096,0.0747 -2.40629,-0.11005 -3.60906,-0.075 -1.21071,0.0353 -2.41345,0.36207 -3.62234,0.2869 -1.20883,-0.0752 -2.76169,0.17857 -3.5587,-0.7334 -1.58582,-1.81455 -0.23602,-4.81681 -0.4978,-7.2124 -0.26178,-2.39559 -0.87981,-4.74749 -1.07161,-7.1497 -0.19301,-2.41748 -0.34034,-4.86428 -0.0769,-7.2751 0.26345,-2.41089 -0.27992,-5.61347 1.64635,-7.087 0.96445,-0.73777 2.43741,-0.0322 3.6404,0.133 1.2027,0.16517 2.32705,0.82193 3.54064,0.8531 1.20935,0.0311 2.36876,-0.50328 3.56726,-0.66785 1.19802,-0.1645 3.6138,-0.31825 3.6138,-0.31825"
         sodipodi:nodetypes="csssssssssssssssc" />
      <path
         id="use135-5"
         style="fill:#c8beb7;stroke:#666666;stroke-width:1.79527;stroke-linecap:round;stroke-linejoin:round"
         d="m 182.68278,323.33073 c 0,0 -1.0327,4.72454 -1.26065,7.12595 -0.22795,2.4015 -0.20815,4.82617 -0.1026,7.23615 0.10521,2.40222 0.50523,4.78253 0.73245,7.1763 0.22721,2.39372 2.4245,5.5845 0.6308,7.1858 -0.90257,0.80575 -2.34984,-0.63956 -3.5568,-0.7239 -1.20741,-0.0844 -2.41553,0.15922 -3.62424,0.2223 -1.19838,0.0625 -2.39961,0.0712 -3.5967,0.15485 -1.19745,0.0836 -2.7472,1.20701 -3.58436,0.34675 -1.6778,-1.72409 0.82461,-4.75722 0.89015,-7.16205 0.0655,-2.40487 -0.29944,-4.80255 -0.49874,-7.20005 -0.19886,-2.39222 -0.63001,-4.76817 -0.6954,-7.16775 -0.0654,-2.39937 -1.2234,-5.34278 0.30399,-7.19435 0.77239,-0.93633 2.33473,-0.72235 3.54255,-0.84265 1.2076,-0.12028 2.43205,-0.004 3.63851,0.1273 1.19998,0.13055 2.36042,0.53492 3.56154,0.65455 1.20073,0.1196 3.6195,0.0608 3.6195,0.0608"
         sodipodi:nodetypes="csssssssssssssssc" />
      <path
         id="use136-2"
         style="fill:#c8beb7;stroke:#666666;stroke-width:1.79527;stroke-linecap:round;stroke-linejoin:round"
         d="m 167.11672,337.69283 c 0,0 0.75391,4.76962 1.0621,7.16395 0.30814,2.39392 0.75899,4.78464 0.78659,7.19815 0.0276,2.41543 -0.31385,4.82418 -0.62224,7.22 -0.30839,2.39578 0.62356,5.58894 -1.22645,7.1421 -0.92331,0.77516 -2.41534,-0.11535 -3.61666,-0.0143 -1.20164,0.10108 -2.35862,0.6341 -3.5644,0.61845 -1.20874,-0.0157 -2.35126,-0.61114 -3.55584,-0.7125 -1.20468,-0.10137 -2.74006,0.93174 -3.6252,0.1083 -1.75344,-1.63122 -0.22611,-4.78459 -0.30401,-7.1782 -0.0779,-2.39399 -0.13409,-4.78883 -0.16339,-7.1839 -0.0293,-2.39604 -0.0903,-4.7937 -0.0124,-7.18865 0.0779,-2.39522 -1.11814,-5.38742 0.47975,-7.17345 0.80555,-0.90039 2.36885,-0.4881 3.56725,-0.64125 1.19837,-0.15314 2.40661,-0.32403 3.61379,-0.27645 1.20613,0.0475 2.38037,0.40654 3.5777,0.55955 1.1973,0.15301 3.60336,0.35815 3.60336,0.35815"
         sodipodi:nodetypes="csssssssssssssssc" />
      <path
         id="use137-3"
         style="fill:#c8beb7;stroke:#666666;stroke-width:1.79527;stroke-linecap:round;stroke-linejoin:round"
         d="m 182.68278,353.49133 c 0,0 -0.96163,4.76306 -0.9709,7.17725 -0.009,2.41431 0.91768,4.77052 0.9158,7.18485 -0.002,2.41481 -0.93647,4.77006 -0.9272,7.18485 0.009,2.4147 2.61591,5.39899 0.9823,7.17725 -0.82759,0.90087 -2.4597,0.0205 -3.6651,-0.1881 -1.20564,-0.20861 -2.29287,-1.01986 -3.51594,-1.0545 -1.2166,-0.0345 -2.35184,0.64178 -3.5511,0.8493 -1.19925,0.20752 -2.70498,1.18429 -3.62996,0.3933 -1.82877,-1.56387 -0.12251,-4.81462 -0.3458,-7.2105 -0.22333,-2.39634 -0.79426,-4.75307 -0.99275,-7.1516 -0.19971,-2.41325 -0.4223,-4.85075 -0.19759,-7.2618 0.22471,-2.41107 -0.39451,-5.63867 1.53614,-7.1003 0.96604,-0.73136 2.41985,0.31563 3.62806,0.2242 1.2082,-0.0914 2.34718,-0.64878 3.553,-0.7676 1.19674,-0.11793 2.40803,-0.0319 3.60714,0.0589 1.19877,0.0907 3.5739,0.4845 3.5739,0.4845"
         sodipodi:nodetypes="csssssssssssssssc" />
      <path
         id="use138-6"
         style="fill:#c8beb7;stroke:#666666;stroke-width:1.79527;stroke-linecap:round;stroke-linejoin:round"
         d="m 167.11672,367.85343 c 0,0 -1.88666,4.58106 -2.23536,7.00815 -0.3487,2.42707 -0.0568,4.91265 0.17195,7.35395 0.22563,2.40841 0.83685,4.76578 1.18085,7.16015 0.34395,2.39403 2.57822,5.4773 0.88256,7.20195 -0.84742,0.86191 -2.40876,-0.21525 -3.6062,-0.38 -1.19745,-0.16475 -2.36817,-0.53781 -3.57486,-0.608 -1.21022,-0.0704 -2.43088,0.0248 -3.63184,0.19 -1.20129,0.16526 -2.61444,1.57042 -3.5492,0.798 -1.8498,-1.52854 0.074,-4.80056 0.22704,-7.1953 0.15303,-2.39512 0.829,-4.77079 0.69065,-7.1668 -0.13979,-2.42085 -1.37201,-4.6927 -1.52664,-7.11265 -0.15464,-2.42006 -0.97713,-5.41507 0.60895,-7.24945 0.7947,-0.9191 2.35007,-0.63647 3.55015,-0.8265 1.19977,-0.18998 2.41832,-0.38279 3.63089,-0.31065 1.2112,0.0721 2.36599,0.54839 3.5644,0.73815 1.19794,0.18969 3.61666,0.399 3.61666,0.399"
         sodipodi:nodetypes="csssssssssssssssc" />
      <path
         id="use139-7"
         style="fill:#c8beb7;stroke:#666666;stroke-width:1.20643;stroke-linecap:round;stroke-linejoin:round"
         d="m 182.21205,383.46897 c 0,0 1.36383,2.11152 1.4698,3.31588 0.1013,1.15124 -0.76582,2.21237 -0.82988,3.36628 -0.0626,1.1272 0.54527,2.2337 0.44168,3.35787 -0.10692,1.16036 -0.13864,2.63968 -1.0816,3.32429 -0.94042,0.68276 -2.32431,0.0101 -3.48639,-10e-4 -1.16136,-0.0111 -2.32233,-0.0488 -3.48362,-0.0654 -1.16238,-0.0167 -2.32488,-0.0456 -3.48732,-0.0345 -1.16134,0.0111 -2.6546,0.91552 -3.4827,0.10122 -0.80518,-0.79176 0.29439,-2.28692 0.0415,-3.38749 -0.27502,-1.19686 -1.45614,-2.08181 -1.64868,-3.29467 -0.17743,-1.11771 0.24121,-2.25676 0.50438,-3.35744 0.27152,-1.13561 0.17189,-2.61993 1.1028,-3.32472 0.92897,-0.70332 2.32678,-0.16838 3.49193,-0.15912 1.16152,0.009 2.31658,0.20353 3.47809,0.21393 1.16134,0.0104 2.3195,-0.14244 3.48085,-0.15161 1.16346,-0.009 3.48916,0.0968 3.48916,0.0968"
         sodipodi:nodetypes="csssssssssssssssc" />
      <path
         id="use140-9"
         style="fill:#c8beb7;stroke:#666666;stroke-width:1.32326;stroke-linecap:round;stroke-linejoin:round"
         d="m 167.29889,19.71299 c 0,0 -0.87063,2.55689 -1.11531,3.88024 -0.2386,1.29047 -0.49098,2.61925 -0.33725,3.92256 0.15927,1.35023 1.03988,2.5337 1.28535,3.87095 0.23688,1.29041 1.1036,3.01342 0.16721,3.93236 -0.85571,0.83976 -2.39332,-0.1477 -3.59005,-0.22038 -1.19696,-0.0727 -2.39276,-0.26258 -3.59101,-0.21574 -1.18842,0.0465 -2.34691,0.41824 -3.53399,0.49135 -1.21352,0.0747 -2.76467,0.78124 -3.64705,-0.0552 -0.94904,-0.89962 -0.3625,-2.60947 -0.26885,-3.91378 0.095,-1.32278 0.66661,-2.57433 0.83694,-3.88953 0.16762,-1.29428 0.27245,-2.60949 0.17861,-3.9112 -0.095,-1.31744 -1.55217,-2.84475 -0.7467,-3.8916 0.72881,-0.94721 2.38267,-0.199 3.57675,-0.24929 1.20049,-0.0506 2.40374,-0.10177 3.60429,-0.0526 1.19237,0.0488 2.37116,0.29429 3.56346,0.34477 1.20487,0.051 3.6176,-0.0428 3.6176,-0.0428"
         sodipodi:nodetypes="csssssssssssssssc" />
    </g>
    <g
       id="g141">
      <path
         id="use115-8-1"
         style="fill:#c8beb7;stroke:#666666;stroke-width:1.79527;stroke-linecap:round;stroke-linejoin:round"
         d="m 320.65157,19.87883 c 0,0 0.0395,4.85222 0.3458,7.25325 0.3064,2.40142 1.57033,4.68941 1.48675,7.10885 -0.0842,2.43846 -1.68049,4.62395 -1.9893,7.04425 -0.30881,2.42022 1.83277,5.54477 0.15675,7.31785 -0.82407,0.87179 -2.39751,0.15777 -3.5967,0.1254 -1.19907,-0.0324 -2.38484,-0.3154 -3.58435,-0.3192 -1.19917,-0.004 -2.38656,0.26405 -3.5853,0.2964 -1.19863,0.0324 -2.87562,0.85614 -3.59575,-0.1026 -1.46395,-1.94902 1.42104,-4.6765 1.83635,-7.07845 0.41528,-2.4018 0.55235,-4.84804 0.64695,-7.28365 0.0955,-2.45879 0.33843,-4.95683 -0.0808,-7.3815 -0.41927,-2.42485 -3.8049,-4.95845 -2.40255,-6.9806 0.68436,-0.98683 2.40346,-0.0122 3.60145,-0.0959 1.19792,-0.0837 2.37922,-0.43866 3.5796,-0.40565 1.20525,0.0331 2.36352,0.5202 3.5663,0.6042 1.20247,0.084 3.61475,-0.1026 3.61475,-0.1026"
         sodipodi:nodetypes="csssssssssssssssc" />
      <path
         id="use116-6-1"
         style="fill:#c8beb7;stroke:#666666;stroke-width:1.79527;stroke-linecap:round;stroke-linejoin:round"
         d="m 305.54698,36.08683 c 0,0 -1.54566,4.66228 -1.74135,7.087 -0.1957,2.42491 0.5439,4.84261 0.58234,7.2751 0.0383,2.42122 -0.54532,4.84243 -0.35054,7.2561 0.19478,2.41368 3.04123,5.23044 1.50955,7.106 -0.76037,0.93108 -2.40639,-0.10369 -3.6062,-0.0294 -1.19975,0.0743 -2.37361,0.43008 -3.57486,0.47405 -1.19826,0.0439 -2.39422,-0.1368 -3.59099,-0.2109 -1.19692,-0.0741 -2.82355,0.68858 -3.59005,-0.2337 -1.53841,-1.85106 0.60624,-4.77585 0.8569,-7.16965 0.25068,-2.39407 0.49891,-4.78984 0.64695,-7.19245 0.14943,-2.42527 0.49626,-4.86889 0.2432,-7.28555 -0.25304,-2.41646 -2.96962,-4.97688 -1.74705,-7.07655 0.61377,-1.0541 2.31215,-0.84031 3.52259,-0.99085 1.21059,-0.15056 2.43858,0.0866 3.65845,0.0978 1.21663,0.0112 2.44253,-0.18055 3.64991,-0.0304 1.20733,0.15014 3.53115,0.9234 3.53115,0.9234"
         sodipodi:nodetypes="csssssssssssssssc" />
      <path
         id="use117-5-3"
         style="fill:#c8beb7;stroke:#666666;stroke-width:1.79527;stroke-linecap:round;stroke-linejoin:round"
         d="m 321.11304,51.88533 c 0,0 0.57108,4.77478 0.7923,7.1687 0.22124,2.39422 0.73046,4.79695 0.53485,7.1934 -0.19764,2.4213 -1.48836,4.6651 -1.7119,7.08415 -0.22354,2.41906 1.95408,5.42348 0.38475,7.27795 -0.77576,0.91672 -2.382,0.31835 -3.57959,0.40755 -1.19791,0.0892 -2.40452,0.22892 -3.60145,0.1273 -1.20591,-0.10239 -2.34801,-0.64823 -3.55491,-0.73815 -1.20727,-0.0899 -2.7181,1.00394 -3.62615,0.2033 -1.79789,-1.58523 -0.38931,-4.77905 -0.4997,-7.17345 -0.11038,-2.39429 -0.3721,-4.80101 -0.16245,-7.18865 0.21204,-2.41486 1.31718,-4.70913 1.42881,-7.1307 0.11162,-2.4214 -2.14486,-5.23735 -0.76666,-7.2314 0.69209,-1.00135 2.3227,-0.79403 3.53305,-0.9234 1.21022,-0.12935 2.43699,0.0342 3.64801,0.1558 1.19923,0.12044 2.3726,0.43905 3.57104,0.56715 1.19836,0.12809 3.61,0.20045 3.61,0.20045"
         sodipodi:nodetypes="csssssssssssssssc" />
      <path
         id="use118-8-9"
         style="fill:#c8beb7;stroke:#666666;stroke-width:1.79527;stroke-linecap:round;stroke-linejoin:round"
         d="m 305.54698,66.24743 c 0,0 1.3001,4.70411 1.43924,7.12215 0.13914,2.41794 -0.38535,4.8287 -0.61274,7.23995 -0.22535,2.38962 -0.60691,4.76579 -0.74481,7.16205 -0.1379,2.39621 1.83038,5.74927 -0.0817,7.20005 -0.97064,0.73647 -2.31921,-0.81892 -3.53115,-0.9443 -1.21202,-0.12539 -2.43176,0.17275 -3.64991,0.2014 -1.21032,0.0285 -2.42761,-0.15398 -3.63184,-0.0294 -1.20433,0.12459 -2.72818,1.66221 -3.5492,0.77235 -1.65905,-1.79814 1.79408,-4.60019 2.1318,-7.02335 0.33773,-2.42321 -0.12778,-4.89212 -0.13015,-7.33875 -0.002,-2.44592 0.45353,-4.91434 0.1159,-7.33685 -0.33762,-2.4224 -3.59664,-5.07735 -2.11755,-7.02525 0.72633,-0.95655 2.40406,-0.006 3.6024,0.0751 1.19794,0.0808 2.37816,0.43047 3.57864,0.40945 1.20349,-0.0211 2.37011,-0.45478 3.57106,-0.5358 1.20073,-0.081 3.61,0.0513 3.61,0.0513"
         sodipodi:nodetypes="csssssssssssssssc" />
      <path
         id="use119-2-5"
         style="fill:#c8beb7;stroke:#666666;stroke-width:1.79527;stroke-linecap:round;stroke-linejoin:round"
         d="m 321.11304,82.04593 c 0,0 2.04543,4.54333 2.43485,6.9749 0.38946,2.43182 0.0509,4.93141 -0.1349,7.3872 -0.18299,2.41825 -0.5798,4.81679 -0.96329,7.21145 -0.38343,2.39433 0.65077,5.76142 -1.33666,7.15065 -0.98868,0.69109 -2.37075,-0.45994 -3.56915,-0.59755 -1.19846,-0.13762 -2.40708,-0.28778 -3.61189,-0.22705 -1.20459,0.0607 -2.37186,0.4514 -3.57011,0.589 -1.19833,0.13761 -2.76858,1.09894 -3.61095,0.2356 -1.68064,-1.72246 0.40041,-4.79668 0.64695,-7.19055 0.24655,-2.3939 0.63004,-4.7735 0.8322,-7.17155 0.20461,-2.42709 0.63429,-4.87407 0.38475,-7.29695 -0.24953,-2.42281 -3.12958,-4.9842 -1.8639,-7.06515 0.63047,-1.03658 2.34214,-0.70428 3.55206,-0.7942 1.20944,-0.0899 2.42135,0.14895 3.629,0.2603 1.196,0.11028 2.38277,0.3147 3.58054,0.40375 1.19765,0.089 3.6005,0.13015 3.6005,0.13015"
         sodipodi:nodetypes="csssssssssssssssc" />
      <path
         id="use120-5-6"
         style="fill:#c8beb7;stroke:#666666;stroke-width:1.79527;stroke-linecap:round;stroke-linejoin:round"
         d="m 305.54698,96.40803 c 0,0 -0.54571,4.77325 -0.73055,7.16775 -0.18482,2.3943 -0.58569,4.80191 -0.3781,7.19435 0.20986,2.41857 1.44242,4.67794 1.62925,7.0984 0.18681,2.42025 1.15906,5.51121 -0.5206,7.2637 -0.83609,0.87235 -2.40438,0.24776 -3.60145,0.4123 -1.19723,0.16456 -2.37355,0.49814 -3.57961,0.57475 -1.21229,0.077 -2.43887,0.0476 -3.64229,-0.1178 -1.20333,-0.16541 -2.92447,0.17862 -3.53875,-0.86925 -1.23378,-2.10463 1.68773,-4.62906 1.94845,-7.0547 0.26071,-2.42556 0.002,-4.90201 -0.4047,-7.3074 -0.40737,-2.40945 -1.76232,-4.6165 -2.0235,-7.04615 -0.2612,-2.42989 -1.24381,-5.58335 0.47975,-7.31595 0.8566,-0.86109 2.42399,-0.35469 3.63469,-0.25745 1.21048,0.0972 2.33533,0.74394 3.54635,0.8341 1.19744,0.0891 2.39315,-0.20029 3.59006,-0.2964 1.19679,-0.0961 3.591,-0.28025 3.591,-0.28025"
         sodipodi:nodetypes="csssssssssssssssc" />
      <path
         id="use121-4-3"
         style="fill:#c8beb7;stroke:#666666;stroke-width:1.79527;stroke-linecap:round;stroke-linejoin:round"
         d="m 321.11304,112.20653 c 0,0 -0.60057,4.78934 -0.90915,7.18295 -0.3086,2.39377 -0.93922,4.76557 -0.9424,7.17915 -0.003,2.41339 0.61482,4.78747 0.9234,7.18105 0.3086,2.39378 2.57523,5.4168 0.92815,7.18105 -0.81983,0.87815 -2.40048,-0.11524 -3.59764,-0.21565 -1.1972,-0.10041 -2.38201,-0.38158 -3.5834,-0.38665 -1.20097,-0.005 -2.38852,0.25587 -3.5853,0.35625 -1.19719,0.10042 -2.68377,1.02811 -3.59576,0.24605 -1.82554,-1.56547 -0.63693,-4.78394 -0.61084,-7.18865 0.0261,-2.40463 0.76837,-4.76868 0.76664,-7.17345 -0.002,-2.40514 -0.75101,-4.76845 -0.7771,-7.17345 -0.0261,-2.40501 -1.19779,-5.61523 0.6213,-7.18865 0.90736,-0.78481 2.39326,0.21854 3.59291,0.20995 1.19919,-0.009 2.38897,-0.27007 3.58815,-0.26125 1.20091,0.009 2.38817,0.30589 3.58909,0.31445 1.20049,0.009 3.59195,-0.26315 3.59195,-0.26315"
         sodipodi:nodetypes="csssssssssssssssc" />
      <path
         id="use122-2-5"
         style="fill:#c8beb7;stroke:#666666;stroke-width:1.79527;stroke-linecap:round;stroke-linejoin:round"
         d="m 305.54698,126.56863 c 0,0 0.49933,4.84209 0.3021,7.2542 -0.1972,2.41182 -1.37045,4.69035 -1.4763,7.1079 -0.10512,2.40092 0.64777,4.76492 0.8436,7.16015 0.19582,2.39519 2.24393,5.74784 0.3306,7.20195 -0.97723,0.74268 -2.28768,-0.94859 -3.49885,-1.1476 -1.21121,-0.19901 -2.4603,-0.14877 -3.68221,-0.0323 -1.20815,0.11516 -2.37157,0.52238 -3.56914,0.71915 -1.19766,0.19679 -2.68128,1.23989 -3.6119,0.46075 -1.83691,-1.53791 -0.33834,-4.78257 -0.35815,-7.1782 -0.0198,-2.39588 0.17319,-4.78885 0.2394,-7.1839 0.0661,-2.39303 0.1379,-4.78624 0.1577,-7.1801 0.0198,-2.39395 -1.84586,-5.61156 -0.0389,-7.182 0.90825,-0.78937 2.37173,0.43668 3.572,0.5225 1.19995,0.0858 2.41014,0.0905 3.60904,-0.009 1.20095,-0.0997 2.36525,-0.50107 3.56726,-0.5871 1.20177,-0.086 3.6138,0.0731 3.6138,0.0731"
         sodipodi:nodetypes="csssssssssssssssc" />
      <path
         id="use123-1-9"
         style="fill:#c8beb7;stroke:#666666;stroke-width:1.79527;stroke-linecap:round;stroke-linejoin:round"
         d="m 321.11304,142.36713 c 0,0 1.00273,4.72899 1.2502,7.1288 0.24744,2.3996 0.52111,4.8385 0.23085,7.2333 -0.2938,2.42403 -1.72553,4.62486 -1.976,7.05375 -0.25046,2.42882 2.18076,5.54202 0.49495,7.30835 -0.84477,0.88512 -2.46165,0.11624 -3.66985,-0.077 -1.20833,-0.19326 -2.2875,-1.07305 -3.51119,-1.0716 -1.22393,10e-4 -2.30075,0.88684 -3.50931,1.08015 -1.20876,0.19335 -2.78302,0.91022 -3.67175,0.0684 -1.7647,-1.67155 0.0808,-4.88069 -0.25934,-7.28745 -0.34023,-2.40704 -1.70371,-4.64461 -1.7708,-7.07465 -0.0668,-2.41956 1.03302,-4.73404 1.3718,-7.1307 0.33877,-2.39661 -1.27348,-5.77312 0.65834,-7.2314 0.96635,-0.72948 2.37136,0.49766 3.56915,0.6745 1.19783,0.17685 2.40659,0.50095 3.61191,0.3857 1.21811,-0.11647 2.2997,-0.89574 3.51025,-1.07445 1.21049,-0.1787 3.67079,0.0143 3.67079,0.0143"
         sodipodi:nodetypes="csssssssssssssssc" />
      <path
         id="use124-5-4"
         style="fill:#c8beb7;stroke:#666666;stroke-width:1.79527;stroke-linecap:round;stroke-linejoin:round"
         d="m 305.54698,156.72923 c 0,0 -0.24096,4.84545 -0.58141,7.24375 -0.3404,2.39796 -1.31063,4.7008 -1.45729,7.11835 -0.14667,2.41771 0.24572,4.84468 0.58614,7.2428 0.34039,2.39795 2.78945,5.0997 1.45256,7.1193 -0.67024,1.01251 -2.37253,0.52333 -3.5701,0.7239 -1.19751,0.20056 -2.39714,0.50882 -3.61096,0.4788 -1.21335,-0.03 -2.38445,-0.45597 -3.5815,-0.65645 -1.19691,-0.20046 -2.70407,0.27285 -3.59954,-0.54625 -1.79173,-1.63892 -1.43727,-4.6659 -1.72901,-7.07655 -0.29177,-2.41093 -0.30534,-4.87518 -0.009,-7.28555 0.29653,-2.41189 1.48272,-4.6584 1.7746,-7.07085 0.29193,-2.41285 -1.64761,-5.47099 -0.0371,-7.29125 0.79611,-0.89979 2.37932,-0.36846 3.57959,-0.42085 1.19987,-0.0524 2.4008,0.0777 3.60145,0.10735 1.19813,0.0296 2.39744,0.018 3.5948,0.0703 1.19703,0.0523 3.58626,0.2432 3.58626,0.2432"
         sodipodi:nodetypes="csssssssssssssssc" />
      <path
         id="use125-3-4"
         style="fill:#c8beb7;stroke:#666666;stroke-width:1.79527;stroke-linecap:round;stroke-linejoin:round"
         d="m 321.11304,172.52773 c 0,0 -0.66529,4.78391 -0.63555,7.1896 0.0297,2.40597 0.65427,4.7716 0.8132,7.1725 0.1582,2.38985 0.16832,4.789 0.1387,7.1839 -0.0296,2.39487 1.35195,5.45975 -0.31635,7.1782 -0.84224,0.86756 -2.41043,0.3361 -3.6176,0.26695 -1.20716,-0.0691 -2.36021,-0.55887 -3.56344,-0.6783 -1.19562,-0.11867 -2.40478,-0.1039 -3.60431,-0.0352 -1.19954,0.0687 -2.62497,1.1798 -3.57675,0.4465 -1.92361,-1.48206 -0.56977,-4.82503 -0.97089,-7.22 -0.4011,-2.39489 -1.56409,-4.71731 -1.4345,-7.1421 0.13079,-2.44725 1.80299,-4.59582 2.2078,-7.0129 0.40479,-2.41696 -1.52745,-5.60858 0.19759,-7.3492 0.84537,-0.853 2.40035,-0.17256 3.60051,-0.1292 1.19974,0.0433 2.38031,0.41481 3.58055,0.38855 1.20552,-0.0264 2.37077,-0.50369 3.57579,-0.5472 1.20479,-0.0435 3.60525,0.28785 3.60525,0.28785"
         sodipodi:nodetypes="csssssssssssssssc" />
      <path
         id="use126-2-8"
         style="fill:#c8beb7;stroke:#666666;stroke-width:1.79527;stroke-linecap:round;stroke-linejoin:round"
         d="m 305.54698,186.88983 c 0,0 0.16786,4.82413 -0.0238,7.22475 -0.19167,2.40074 -0.84468,4.74509 -1.12289,7.13735 -0.28078,2.41442 -0.74353,4.84832 -0.55005,7.2713 0.19345,2.42261 3.41818,5.37529 1.6967,7.0908 -0.86077,0.85779 -2.34156,-0.67542 -3.54256,-0.8607 -1.20141,-0.18534 -2.42288,-0.25036 -3.6385,-0.247 -1.21482,0.003 -2.43406,0.0817 -3.63469,0.26695 -1.20068,0.18521 -2.582,1.57964 -3.54635,0.84075 -1.90799,-1.46191 -0.33442,-4.80674 -0.21945,-7.20765 0.11498,-2.40116 1.00671,-4.75259 0.90725,-7.15445 -0.10045,-2.42571 -1.39437,-4.69999 -1.51051,-7.125 -0.11615,-2.42512 -0.9147,-5.54119 0.82271,-7.2371 0.86407,-0.84344 2.4104,-0.16867 3.6081,-0.32205 1.19774,-0.15338 2.36604,-0.55876 3.57294,-0.59755 1.20639,-0.0388 2.40518,0.21338 3.60241,0.3667 1.19726,0.15332 3.57865,0.5529 3.57865,0.5529"
         sodipodi:nodetypes="csssssssssssssssc" />
      <path
         id="use127-1-8"
         style="fill:#c8beb7;stroke:#666666;stroke-width:1.79527;stroke-linecap:round;stroke-linejoin:round"
         d="m 321.11304,202.68833 c 0,0 -0.8597,4.82715 -0.71154,7.25135 0.14817,2.42421 1.53859,4.68255 1.58934,7.11075 0.0505,2.41425 -1.13614,4.71946 -1.28344,7.12975 -0.14729,2.41008 2.25369,5.67837 0.40564,7.23235 -0.9299,0.78193 -2.33824,-0.73946 -3.55014,-0.82555 -1.2118,-0.0861 -2.41714,0.26379 -3.6309,0.3154 -1.20194,0.0511 -2.40906,-0.0912 -3.60906,-0.006 -1.2,0.0852 -2.73029,1.37537 -3.572,0.51585 -1.70215,-1.73816 0.7603,-4.80625 1.19415,-7.20005 0.43391,-2.3941 1.57673,-4.73475 1.40886,-7.16205 -0.16983,-2.45568 -1.97023,-4.55851 -2.4092,-6.9806 -0.43893,-2.42189 -1.91976,-5.6267 -0.19381,-7.3815 0.84851,-0.86269 2.42716,-0.0971 3.62996,0.0351 1.20286,0.13223 2.34432,0.66464 3.5511,0.7543 1.20226,0.0893 2.41165,-0.0887 3.61,-0.2204 1.19815,-0.13172 3.57104,-0.56905 3.57104,-0.56905"
         sodipodi:nodetypes="csssssssssssssssc" />
      <path
         id="use128-6-8"
         style="fill:#c8beb7;stroke:#666666;stroke-width:1.79527;stroke-linecap:round;stroke-linejoin:round"
         d="m 305.54698,217.05043 c 0,0 0.58025,4.81744 0.44745,7.2276 -0.1328,2.41009 -1.10874,4.72426 -1.2388,7.1345 -0.1292,2.39417 0.32884,4.78417 0.46075,7.1782 0.13188,2.39354 2.08437,5.54967 0.3306,7.1839 -0.88474,0.82443 -2.40622,-0.2506 -3.60336,-0.4218 -1.19732,-0.17122 -2.36834,-0.62419 -3.5777,-0.60515 -1.21062,0.0191 -2.36202,0.54678 -3.56059,0.7182 -1.199,0.17148 -2.80652,1.2057 -3.62045,0.30875 -1.62672,-1.79265 1.22582,-4.72303 1.3148,-7.1421 0.089,-2.41927 -0.51844,-4.81399 -0.78661,-7.22 -0.26609,-2.38738 -0.72774,-4.75961 -0.81604,-7.16015 -0.0883,-2.40094 -1.60005,-5.71597 0.28785,-7.20195 0.95004,-0.74778 2.35144,0.61636 3.55679,0.7106 1.20543,0.0943 2.41547,-0.1772 3.62425,-0.14915 1.21685,0.0282 2.42408,0.41408 3.63755,0.3192 1.2134,-0.0949 3.54351,-0.88065 3.54351,-0.88065"
         sodipodi:nodetypes="csssssssssssssssc" />
      <path
         id="use129-3-8"
         style="fill:#c8beb7;stroke:#666666;stroke-width:1.79527;stroke-linecap:round;stroke-linejoin:round"
         d="m 321.11304,232.84893 c 0,0 -0.6938,4.80245 -1.08775,7.19625 -0.39398,2.39398 -1.21762,4.74037 -1.27585,7.16585 -0.0583,2.42684 0.53679,4.82754 0.931,7.22285 0.39415,2.39497 2.88931,5.1978 1.4326,7.13925 -0.72903,0.97163 -2.43098,0.12159 -3.6309,0.31065 -1.19979,0.18905 -2.34379,0.67953 -3.55014,0.8208 -1.21941,0.1428 -2.47037,0.21298 -3.68315,0.0219 -1.21275,-0.19108 -2.89177,-0.0857 -3.49791,-1.1533 -1.19791,-2.10996 1.22963,-4.70405 1.58555,-7.1041 0.3559,-2.39988 0.68195,-4.83578 0.54436,-7.258 -0.13735,-2.41805 -1.00512,-4.7416 -1.36041,-7.13735 -0.35528,-2.39567 -2.22509,-5.2891 -0.7695,-7.22475 0.72963,-0.97027 2.38928,-0.43207 3.58626,-0.6346 1.19678,-0.2025 2.38283,-0.64684 3.5948,-0.58045 1.21833,0.0667 2.32525,0.77114 3.5283,0.9747 1.20311,0.20357 3.65274,0.24035 3.65274,0.24035"
         sodipodi:nodetypes="csssssssssssssssc" />
      <path
         id="use130-9-8"
         style="fill:#c8beb7;stroke:#666666;stroke-width:1.79527;stroke-linecap:round;stroke-linejoin:round"
         d="m 305.54698,247.21103 c 0,0 1.16413,4.73094 1.59504,7.1269 0.43086,2.39568 1.00439,4.80114 0.988,7.2352 -0.0164,2.433 -0.65421,4.82346 -1.08489,7.2181 -0.43069,2.39471 0.43448,5.6658 -1.49815,7.144 -0.9602,0.73442 -2.42095,-0.0608 -3.62046,-0.2109 -1.19945,-0.15011 -2.35214,-0.65893 -3.5606,-0.6878 -1.20581,-0.0288 -2.38468,0.36607 -3.5815,0.51585 -1.19727,0.14984 -2.77905,1.26757 -3.59954,0.38285 -1.64122,-1.7697 1.10183,-4.71715 1.3053,-7.12215 0.20346,-2.40491 -0.12788,-4.82674 -0.0902,-7.23995 0.0378,-2.42167 0.52146,-4.84561 0.3173,-7.25895 -0.20418,-2.41356 -2.80246,-5.04068 -1.53235,-7.10315 0.63807,-1.03613 2.32846,-0.7464 3.53305,-0.91865 1.20428,-0.1722 2.44059,-0.25711 3.64799,-0.1083 1.21087,0.14924 2.31487,0.82101 3.52261,0.9937 1.20725,0.17262 3.65845,0.0333 3.65845,0.0333"
         sodipodi:nodetypes="csssssssssssssssc" />
      <path
         id="use131-6-7"
         style="fill:#c8beb7;stroke:#666666;stroke-width:1.79527;stroke-linecap:round;stroke-linejoin:round"
         d="m 321.11304,263.00953 c 0,0 -0.40344,4.94315 -0.0143,7.3682 0.38914,2.42508 2.13369,4.54479 2.31895,6.9939 0.18287,2.41758 -0.8404,4.77579 -1.22455,7.16965 -0.38413,2.39374 0.59478,5.43969 -1.08015,7.19245 -0.8355,0.87433 -2.36036,0.54545 -3.55964,0.7011 -1.19952,0.15568 -2.42004,0.37163 -3.6214,0.23085 -1.21566,-0.14245 -2.29742,-0.91691 -3.51121,-1.07445 -1.21402,-0.15757 -2.76359,0.96552 -3.66985,0.1425 -1.77376,-1.61084 -0.30731,-4.78256 -0.41229,-7.1763 -0.10499,-2.39406 -0.0778,-4.79352 -0.21756,-7.1858 -0.14096,-2.41221 -0.7319,-4.80789 -0.62605,-7.2219 0.10586,-2.41428 -0.53807,-5.52105 1.2559,-7.1402 0.89513,-0.8079 2.41008,-0.12257 3.6081,-0.25935 1.19777,-0.13675 2.37019,-0.47861 3.57296,-0.5605 1.20742,-0.0822 2.42754,-0.066 3.62994,0.0713 1.2019,0.13725 3.5511,0.7486 3.5511,0.7486"
         sodipodi:nodetypes="csssssssssssssssc" />
      <path
         id="use132-2-2"
         style="fill:#c8beb7;stroke:#666666;stroke-width:1.79527;stroke-linecap:round;stroke-linejoin:round"
         d="m 305.54698,277.37163 c 0,0 1.21648,4.7697 1.178,7.20195 -0.0385,2.43193 -1.19108,4.73735 -1.40505,7.16015 -0.21062,2.38477 0.0885,4.7873 0.12635,7.18105 0.0378,2.39362 1.77482,5.46986 0.1007,7.18105 -0.84354,0.86222 -2.41745,-0.0824 -3.61856,0.0285 -1.20108,0.11091 -2.35666,0.66376 -3.5625,0.6346 -1.21223,-0.0293 -2.3389,-0.69886 -3.54635,-0.81035 -1.20742,-0.11149 -2.67907,0.89363 -3.63469,0.14725 -1.91296,-1.49412 -1.08677,-4.73485 -1.47631,-7.1307 -0.38955,-2.39594 -0.86745,-4.80401 -0.85879,-7.2314 0.009,-2.42664 0.52067,-4.82765 0.9101,-7.22285 0.38944,-2.39524 -0.63934,-5.86358 1.425,-7.13925 1.03828,-0.64161 2.32978,0.7551 3.53209,0.9652 1.20193,0.21003 2.42887,0.27745 3.64895,0.28975 1.22282,0.0123 2.45763,-0.006 3.66226,-0.2166 1.20468,-0.21052 3.5188,-1.03835 3.5188,-1.03835"
         sodipodi:nodetypes="csssssssssssssssc" />
      <path
         id="use133-1-2"
         style="fill:#c8beb7;stroke:#666666;stroke-width:1.79527;stroke-linecap:round;stroke-linejoin:round"
         d="m 321.11304,293.17013 c 0,0 -1.63955,4.62914 -1.99405,7.0433 -0.35447,2.41401 -0.41744,4.89772 -0.11494,7.3188 0.30207,2.41769 1.55551,4.64501 1.90949,7.05565 0.35397,2.41054 1.7716,5.44513 0.1995,7.30645 -0.77617,0.91896 -2.3745,0.40313 -3.57294,0.50635 -1.19884,0.10326 -2.40831,0.20366 -3.6081,0.1121 -1.20329,-0.0918 -2.35732,-0.55668 -3.55966,-0.66025 -1.20276,-0.10361 -2.64608,0.75322 -3.6214,0.0418 -1.9786,-1.44324 -1.74743,-4.60796 -2.16314,-7.02145 -0.41572,-2.41353 -0.39959,-4.89319 -0.31065,-7.34065 0.0883,-2.43093 0.42404,-4.85222 0.83694,-7.24945 0.41296,-2.39755 -0.19847,-5.51566 1.63685,-7.11265 0.90983,-0.79169 2.39888,-0.35541 3.6043,-0.31635 1.20559,0.0391 2.37976,0.40025 3.57676,0.5491 1.19798,0.14897 2.39867,0.383 3.60524,0.3439 1.2067,-0.0391 3.5758,-0.57665 3.5758,-0.57665"
         sodipodi:nodetypes="csssssssssssssssc" />
      <path
         id="use134-1-2"
         style="fill:#c8beb7;stroke:#666666;stroke-width:1.79527;stroke-linecap:round;stroke-linejoin:round"
         d="m 305.54698,307.53223 c 0,0 0.1611,4.81818 0.40565,7.2143 0.24456,2.39622 1.15548,4.74102 1.0602,7.1478 -0.0959,2.42327 -1.38685,4.67722 -1.63306,7.08985 -0.24617,2.4122 1.73187,5.41992 0.16721,7.27225 -0.77648,0.91923 -2.37103,0.44687 -3.572,0.52155 -1.20096,0.0747 -2.40629,-0.11005 -3.60906,-0.075 -1.21071,0.0353 -2.41345,0.36207 -3.62234,0.2869 -1.20883,-0.0752 -2.76169,0.17857 -3.5587,-0.7334 -1.58582,-1.81455 -0.23602,-4.81681 -0.4978,-7.2124 -0.26178,-2.39559 -0.87981,-4.74749 -1.07161,-7.1497 -0.19301,-2.41748 -0.34034,-4.86428 -0.0769,-7.2751 0.26345,-2.41089 -0.27992,-5.61347 1.64635,-7.087 0.96445,-0.73777 2.43741,-0.0322 3.6404,0.133 1.2027,0.16517 2.32705,0.82193 3.54064,0.8531 1.20935,0.0311 2.36876,-0.50328 3.56726,-0.66785 1.19802,-0.1645 3.6138,-0.31825 3.6138,-0.31825"
         sodipodi:nodetypes="csssssssssssssssc" />
      <path
         id="use135-5-7"
         style="fill:#c8beb7;stroke:#666666;stroke-width:1.79527;stroke-linecap:round;stroke-linejoin:round"
         d="m 321.11304,323.33073 c 0,0 -1.0327,4.72454 -1.26065,7.12595 -0.22795,2.4015 -0.20815,4.82617 -0.1026,7.23615 0.10521,2.40222 0.50523,4.78253 0.73245,7.1763 0.22721,2.39372 2.4245,5.5845 0.6308,7.1858 -0.90257,0.80575 -2.34984,-0.63956 -3.5568,-0.7239 -1.20741,-0.0844 -2.41553,0.15922 -3.62424,0.2223 -1.19838,0.0625 -2.39961,0.0712 -3.5967,0.15485 -1.19745,0.0836 -2.7472,1.20701 -3.58436,0.34675 -1.6778,-1.72409 0.82461,-4.75722 0.89015,-7.16205 0.0655,-2.40487 -0.29944,-4.80255 -0.49874,-7.20005 -0.19886,-2.39222 -0.63001,-4.76817 -0.6954,-7.16775 -0.0654,-2.39937 -1.2234,-5.34278 0.30399,-7.19435 0.77239,-0.93633 2.33473,-0.72235 3.54255,-0.84265 1.2076,-0.12028 2.43205,-0.004 3.63851,0.1273 1.19998,0.13055 2.36042,0.53492 3.56154,0.65455 1.20073,0.1196 3.6195,0.0608 3.6195,0.0608"
         sodipodi:nodetypes="csssssssssssssssc" />
      <path
         id="use136-2-9"
         style="fill:#c8beb7;stroke:#666666;stroke-width:1.79527;stroke-linecap:round;stroke-linejoin:round"
         d="m 305.54698,337.69283 c 0,0 0.75391,4.76962 1.0621,7.16395 0.30814,2.39392 0.75899,4.78464 0.78659,7.19815 0.0276,2.41543 -0.31385,4.82418 -0.62224,7.22 -0.30839,2.39578 0.62356,5.58894 -1.22645,7.1421 -0.92331,0.77516 -2.41534,-0.11535 -3.61666,-0.0143 -1.20164,0.10108 -2.35862,0.6341 -3.5644,0.61845 -1.20874,-0.0157 -2.35126,-0.61114 -3.55584,-0.7125 -1.20468,-0.10137 -2.74006,0.93174 -3.6252,0.1083 -1.75344,-1.63122 -0.22611,-4.78459 -0.30401,-7.1782 -0.0779,-2.39399 -0.13409,-4.78883 -0.16339,-7.1839 -0.0293,-2.39604 -0.0903,-4.7937 -0.0124,-7.18865 0.0779,-2.39522 -1.11814,-5.38742 0.47975,-7.17345 0.80555,-0.90039 2.36885,-0.4881 3.56725,-0.64125 1.19837,-0.15314 2.40661,-0.32403 3.61379,-0.27645 1.20613,0.0475 2.38037,0.40654 3.5777,0.55955 1.1973,0.15301 3.60336,0.35815 3.60336,0.35815"
         sodipodi:nodetypes="csssssssssssssssc" />
      <path
         id="use137-3-1"
         style="fill:#c8beb7;stroke:#666666;stroke-width:1.79527;stroke-linecap:round;stroke-linejoin:round"
         d="m 321.11304,353.49133 c 0,0 -0.96163,4.76306 -0.9709,7.17725 -0.009,2.41431 0.91768,4.77052 0.9158,7.18485 -0.002,2.41481 -0.93647,4.77006 -0.9272,7.18485 0.009,2.4147 2.61591,5.39899 0.9823,7.17725 -0.82759,0.90087 -2.4597,0.0205 -3.6651,-0.1881 -1.20564,-0.20861 -2.29287,-1.01986 -3.51594,-1.0545 -1.2166,-0.0345 -2.35184,0.64178 -3.5511,0.8493 -1.19925,0.20752 -2.70498,1.18429 -3.62996,0.3933 -1.82877,-1.56387 -0.12251,-4.81462 -0.3458,-7.2105 -0.22333,-2.39634 -0.79426,-4.75307 -0.99275,-7.1516 -0.19971,-2.41325 -0.4223,-4.85075 -0.19759,-7.2618 0.22471,-2.41107 -0.39451,-5.63867 1.53614,-7.1003 0.96604,-0.73136 2.41985,0.31563 3.62806,0.2242 1.2082,-0.0914 2.34718,-0.64878 3.553,-0.7676 1.19674,-0.11793 2.40803,-0.0319 3.60714,0.0589 1.19877,0.0907 3.5739,0.4845 3.5739,0.4845"
         sodipodi:nodetypes="csssssssssssssssc" />
      <path
         id="use138-6-0"
         style="fill:#c8beb7;stroke:#666666;stroke-width:1.79527;stroke-linecap:round;stroke-linejoin:round"
         d="m 305.54698,367.85343 c 0,0 -1.88666,4.58106 -2.23536,7.00815 -0.3487,2.42707 -0.0568,4.91265 0.17195,7.35395 0.22563,2.40841 0.83685,4.76578 1.18085,7.16015 0.34395,2.39403 2.57822,5.4773 0.88256,7.20195 -0.84742,0.86191 -2.40876,-0.21525 -3.6062,-0.38 -1.19745,-0.16475 -2.36817,-0.53781 -3.57486,-0.608 -1.21022,-0.0704 -2.43088,0.0248 -3.63184,0.19 -1.20129,0.16526 -2.61444,1.57042 -3.5492,0.798 -1.8498,-1.52854 0.074,-4.80056 0.22704,-7.1953 0.15303,-2.39512 0.829,-4.77079 0.69065,-7.1668 -0.13979,-2.42085 -1.37201,-4.6927 -1.52664,-7.11265 -0.15464,-2.42006 -0.97713,-5.41507 0.60895,-7.24945 0.7947,-0.9191 2.35007,-0.63647 3.55015,-0.8265 1.19977,-0.18998 2.41832,-0.38279 3.63089,-0.31065 1.2112,0.0721 2.36599,0.54839 3.5644,0.73815 1.19794,0.18969 3.61666,0.399 3.61666,0.399"
         sodipodi:nodetypes="csssssssssssssssc" />
      <path
         id="use139-7-5"
         style="fill:#c8beb7;stroke:#666666;stroke-width:1.20643;stroke-linecap:round;stroke-linejoin:round"
         d="m 320.64231,383.46897 c 0,0 1.36383,2.11152 1.4698,3.31588 0.1013,1.15124 -0.76582,2.21237 -0.82988,3.36628 -0.0626,1.1272 0.54527,2.2337 0.44168,3.35787 -0.10692,1.16036 -0.13864,2.63968 -1.0816,3.32429 -0.94042,0.68276 -2.32431,0.0101 -3.48639,-10e-4 -1.16136,-0.0111 -2.32233,-0.0488 -3.48362,-0.0654 -1.16238,-0.0167 -2.32488,-0.0456 -3.48732,-0.0345 -1.16134,0.0111 -2.6546,0.91552 -3.4827,0.10122 -0.80518,-0.79176 0.29439,-2.28692 0.0415,-3.38749 -0.27502,-1.19686 -1.45614,-2.08181 -1.64868,-3.29467 -0.17743,-1.11771 0.24121,-2.25676 0.50438,-3.35744 0.27152,-1.13561 0.17189,-2.61993 1.1028,-3.32472 0.92897,-0.70332 2.32678,-0.16838 3.49193,-0.15912 1.16152,0.009 2.31658,0.20353 3.47809,0.21393 1.16134,0.0104 2.3195,-0.14244 3.48085,-0.15161 1.16346,-0.009 3.48916,0.0968 3.48916,0.0968"
         sodipodi:nodetypes="csssssssssssssssc" />
      <path
         id="use140-9-0"
         style="fill:#c8beb7;stroke:#666666;stroke-width:1.32326;stroke-linecap:round;stroke-linejoin:round"
         d="m 305.72915,19.71299 c 0,0 -0.87063,2.55689 -1.11531,3.88024 -0.2386,1.29047 -0.49098,2.61925 -0.33725,3.92256 0.15927,1.35023 1.03988,2.5337 1.28535,3.87095 0.23688,1.29041 1.1036,3.01342 0.16721,3.93236 -0.85571,0.83976 -2.39332,-0.1477 -3.59005,-0.22038 -1.19696,-0.0727 -2.39276,-0.26258 -3.59101,-0.21574 -1.18842,0.0465 -2.34691,0.41824 -3.53399,0.49135 -1.21352,0.0747 -2.76467,0.78124 -3.64705,-0.0552 -0.94904,-0.89962 -0.3625,-2.60947 -0.26885,-3.91378 0.095,-1.32278 0.66661,-2.57433 0.83694,-3.88953 0.16762,-1.29428 0.27245,-2.60949 0.17861,-3.9112 -0.095,-1.31744 -1.55217,-2.84475 -0.7467,-3.8916 0.72881,-0.94721 2.38267,-0.199 3.57675,-0.24929 1.20049,-0.0506 2.40374,-0.10177 3.60429,-0.0526 1.19237,0.0488 2.37116,0.29429 3.56346,0.34477 1.20487,0.051 3.6176,-0.0428 3.6176,-0.0428"
         sodipodi:nodetypes="csssssssssssssssc" />
    </g>
  </g>
  <g
     inkscape:groupmode="layer"
     id="layer5"
     inkscape:label="Geomorph-Top"
     style="display:inline"
     sodipodi:insensitive="true"
     transform="translate(-16.27893,-17.385727)">
    <path
       id="path1-1-5"
       style="display:inline;fill:none;stroke:#e6e6e6;stroke-width:3.02382"
       inkscape:label="geo2h"
       d="M 346.21494,18.897638 455.32072,207.87393 H 18.897638 L 128.00341,18.897638 Z"
       sodipodi:nodetypes="ccccc" />
  </g>
  <g
     inkscape:label="Geomorph-Full"
     inkscape:groupmode="layer"
     id="layer1"
     style="display:none"
     sodipodi:insensitive="true"
     transform="translate(-16.27893,-17.385727)">
    <path
       sodipodi:type="star"
       style="display:inline;fill:none;stroke:#e6e6e6;stroke-width:1.74799;stroke-dasharray:none"
       id="path1"
       inkscape:flatsided="true"
       sodipodi:sides="6"
       sodipodi:cx="177.23994"
       sodipodi:cy="186.85762"
       sodipodi:r1="126.14206"
       sodipodi:r2="109.24224"
       sodipodi:arg1="2.0943951"
       sodipodi:arg2="2.6179939"
       inkscape:rounded="0"
       inkscape:randomized="0"
       d="M 114.16892,296.09985 51.097885,186.85762 114.16891,77.615393 240.31097,77.615392 303.382,186.85762 240.31097,296.09985 Z"
       transform="matrix(1.7298831,0,0,1.7298831,-69.49573,-115.36782)"
       inkscape:label="geo1" />
  </g>
</svg>
