<?xml version="1.0" encoding="UTF-8" standalone="no"?>
<!-- Created with Inkscape (http://www.inkscape.org/) -->

<svg
   width="116.85601mm"
   height="50.80003mm"
   viewBox="0 0 441.66052 192.00012"
   version="1.1"
   id="svg1"
   inkscape:version="1.3.2 (091e20e, 2023-11-25, custom)"
   sodipodi:docname="half-horizontal-stairs-up-a.svg"
   inkscape:export-filename="..\base-tiles\half-horizontal-1-door-a.svg"
   inkscape:export-xdpi="300"
   inkscape:export-ydpi="300"
   xmlns:inkscape="http://www.inkscape.org/namespaces/inkscape"
   xmlns:sodipodi="http://sodipodi.sourceforge.net/DTD/sodipodi-0.dtd"
   xmlns:xlink="http://www.w3.org/1999/xlink"
   xmlns="http://www.w3.org/2000/svg"
   xmlns:svg="http://www.w3.org/2000/svg">
  <sodipodi:namedview
     id="namedview1"
     pagecolor="#ffffff"
     bordercolor="#000000"
     borderopacity="0.25"
     inkscape:showpageshadow="2"
     inkscape:pageopacity="0.0"
     inkscape:pagecheckerboard="0"
     inkscape:deskcolor="#d1d1d1"
     inkscape:document-units="mm"
     inkscape:zoom="2.9113074"
     inkscape:cx="384.70688"
     inkscape:cy="69.384635"
     inkscape:window-width="2677"
     inkscape:window-height="1443"
     inkscape:window-x="0"
     inkscape:window-y="0"
     inkscape:window-maximized="0"
     showguides="true"
     inkscape:current-layer="layer11">
    <sodipodi:guide
       position="-16.27893,792.18889"
       orientation="0,1"
       id="guide7"
       inkscape:locked="false"
       inkscape:label=""
       inkscape:color="rgb(0,134,229)" />
    <sodipodi:guide
       position="2.6187077,17.385727"
       orientation="-1,0"
       id="guide10"
       inkscape:locked="false"
       inkscape:label=""
       inkscape:color="rgb(0,134,229)" />
  </sodipodi:namedview>
  <defs
     id="defs1" />
  <g
     inkscape:groupmode="layer"
     id="layer2"
     inkscape:label="Hexes-Top"
     transform="translate(-16.27893,-17.385727)">
    <path
       sodipodi:type="star"
       style="display:inline;fill:none;stroke:#cccccc;stroke-width:0.866308;stroke-dasharray:none"
       id="path6-5"
       inkscape:flatsided="true"
       sodipodi:sides="6"
       sodipodi:cx="95.695854"
       sodipodi:cy="483.33698"
       sodipodi:r1="62.518642"
       sodipodi:r2="54.142731"
       sodipodi:arg1="1.0471976"
       sodipodi:arg2="1.5707963"
       inkscape:rounded="0"
       inkscape:randomized="0"
       d="m 126.95517,537.47971 -62.51864,0 -31.259318,-54.14274 31.259324,-54.14273 62.518644,0 31.25932,54.14274 z"
       transform="matrix(-0.87257041,0,0,0.87258402,320.59596,-308.36629)"
       inkscape:label="hex0302" />
    <path
       sodipodi:type="star"
       style="display:inline;fill:none;stroke:#cccccc;stroke-width:0.866308;stroke-dasharray:none"
       id="path6"
       inkscape:flatsided="true"
       sodipodi:sides="6"
       sodipodi:cx="95.695854"
       sodipodi:cy="483.33698"
       sodipodi:r1="62.518642"
       sodipodi:r2="54.142731"
       sodipodi:arg1="1.0471976"
       sodipodi:arg2="1.5707963"
       inkscape:rounded="0"
       inkscape:randomized="0"
       d="m 126.95517,537.47971 -62.51864,0 -31.259318,-54.14274 31.259324,-54.14273 62.518644,0 31.25932,54.14274 z"
       transform="matrix(-0.87257031,0,0,0.872584,402.46053,-355.61037)"
       inkscape:label="hex0201"
       inkscape:tile-cx="155.25921"
       inkscape:tile-cy="66.141743"
       inkscape:tile-w="109.10383"
       inkscape:tile-h="94.488169"
       inkscape:tile-x0="100.70729"
       inkscape:tile-y0="18.897658" />
    <path
       style="display:inline;fill:none;stroke:#cccccc;stroke-width:0.755932"
       d="m 373.4864,160.62992 h 54.5537"
       id="path6-5-2-6-8-3-6"
       inkscape:label="lineb0103"
       inkscape:tile-cx="73.455121"
       inkscape:tile-cy="160.62992"
       inkscape:tile-w="54.553702"
       inkscape:tile-h="0"
       inkscape:tile-x0="46.17827"
       inkscape:tile-y0="160.62992" />
    <use
       x="0"
       y="0"
       inkscape:tiled-clone-of="#path6"
       xlink:href="#path6"
       id="use1"
       style="display:inline" />
    <use
       x="0"
       y="0"
       inkscape:tiled-clone-of="#path6"
       xlink:href="#path6"
       transform="translate(0,94.488169)"
       id="use2"
       style="display:inline" />
    <use
       x="0"
       y="0"
       inkscape:tiled-clone-of="#path6"
       xlink:href="#path6"
       transform="translate(-163.65574)"
       id="use3"
       style="display:inline" />
    <use
       x="0"
       y="0"
       inkscape:tiled-clone-of="#path6"
       xlink:href="#path6"
       transform="translate(-163.65574,94.488169)"
       id="use4"
       style="display:inline" />
    <use
       x="0"
       y="0"
       inkscape:tiled-clone-of="#path6-5-2-6-8-3-6"
       xlink:href="#path6-5-2-6-8-3-6"
       id="use11"
       style="display:inline" />
    <use
       x="0"
       y="0"
       inkscape:tiled-clone-of="#path6-5-2-6-8-3-6"
       xlink:href="#path6-5-2-6-8-3-6"
       transform="translate(-327.32221)"
       id="use12"
       style="display:inline" />
  </g>
  <g
     inkscape:groupmode="layer"
     id="layer8"
     inkscape:label="Walls - Horizontal"
     style="display:inline"
     transform="translate(-16.27893,-17.385727)">
    <g
       id="g2"
       inkscape:label="hor 2"
       style="display:inline"
       transform="matrix(-1,0,0,1,474.21837,0)">
      <path
         id="rect140-6-32-4-4-4"
         style="display:inline;stroke-width:0.927549"
         inkscape:label="hor right A2"
         d="m 343.28694,160.62992 v 30.23622 h 100.7685 l -15.9748,-30.23622 z"
         sodipodi:nodetypes="ccccc"
         sodipodi:insensitive="true" />
      <rect
         style="display:inline;fill:#000000;stroke:none;stroke-width:0.698261"
         id="rect140-6-32-8-4-2-3"
         width="30.236221"
         height="51.601891"
         x="160.62993"
         y="-343.28693"
         transform="rotate(90)"
         inkscape:label="hor right B2"
         sodipodi:insensitive="true" />
      <rect
         style="display:inline;fill:#000000;stroke:none;stroke-width:1.26585"
         id="rect140-6-32-8-4-5-5"
         width="30.236221"
         height="169.5874"
         x="160.62993"
         y="-321.92126"
         transform="rotate(90)"
         inkscape:label="hor mid 2"
         sodipodi:insensitive="true" />
      <rect
         style="display:inline;fill:#000000;stroke:none;stroke-width:0.698261"
         id="rect140-6-32-8-4-2-4"
         width="30.236221"
         height="51.601891"
         x="160.62993"
         y="-182.57388"
         transform="rotate(90)"
         inkscape:label="hor left B2"
         sodipodi:insensitive="true" />
      <path
         id="rect140-6-32-4-4"
         style="display:inline;stroke-width:0.934349"
         inkscape:label="hor left A2"
         d="m 130.97197,160.62992 v 30.23622 H 28.72063 l 17.457639,-30.23622 z"
         sodipodi:nodetypes="ccccc"
         sodipodi:insensitive="true" />
    </g>
    <g
       id="g1"
       inkscape:label="hor 1"
       style="display:inline"
       transform="matrix(-1,0,0,1,473.55696,0)">
      <path
         id="rect140-6-32-4-2"
         style="display:inline;stroke-width:0.8359"
         inkscape:label="hor right B1"
         d="m 291.02363,35.905512 v 30.23622 h 81.83811 L 355.4041,35.905512 Z"
         sodipodi:nodetypes="ccccc" />
      <rect
         style="display:inline;fill:#000000;stroke:none;stroke-width:1.01538"
         id="rect140-6-32-8-4-5"
         width="30.236221"
         height="109.11496"
         x="35.905514"
         y="-291.00473"
         transform="rotate(90)"
         inkscape:label="hor mid 1" />
      <path
         id="rect140-6-32-4"
         style="display:inline;stroke-width:0.8359"
         inkscape:label="hor left B1"
         d="m 181.91245,35.905513 v 30.23622 l -81.83811,-2e-6 17.45764,-30.236219 z"
         sodipodi:nodetypes="ccccc" />
    </g>
  </g>
  <g
     inkscape:groupmode="layer"
     id="layer11"
     inkscape:label="Stairs"
     transform="translate(-16.27893,-17.385727)">
    <g
       id="g50"
       style="display:inline"
       inkscape:label="stairs A"
       transform="matrix(-1,0,0,1,474.21837,0)">
      <path
         d="m 112.074,75.5906 h 11.339 v 21.2604 54.33 h -10e-4 -11.338 v -21.26 z"
         style="stroke-width:15.3542;stroke-linecap:square;stroke-linejoin:round"
         id="path43" />
      <path
         d="m 146.185,79.64 h 10.282 c 0.467,0 1.056,7.9207 1.056,18.2233 v 49.2687 0 h -10.282 c -0.468,0 -1.056,-7.921 -1.056,-18.224 z"
         style="stroke-width:15.3542;stroke-linecap:square;stroke-linejoin:round"
         id="path44" />
      <path
         d="m 180.295,83.6895 h 9.226 c 0.935,0 2.112,6.6006 2.112,15.1861 v 44.2064 0 h -9.226 c -0.935,0 -2.112,-6.6 -2.112,-15.186 z"
         style="stroke-width:15.3542;stroke-linecap:square;stroke-linejoin:round"
         id="path45" />
      <path
         d="m 214.405,87.739 h 8.169 c 1.403,0 3.17,5.2805 3.17,12.1489 v 39.1451 h -0.001 -8.169 c -1.403,0 -3.169,-5.281 -3.169,-12.149 z"
         style="stroke-width:15.3542;stroke-linecap:square;stroke-linejoin:round"
         id="path46" />
      <path
         d="m 248.515,91.7885 h 7.113 c 1.871,0 4.226,3.9604 4.226,9.1115 v 34.083 h -10e-4 -7.113 c -1.87,0 -4.225,-3.96 -4.225,-9.112 z"
         style="stroke-width:15.3542;stroke-linecap:square;stroke-linejoin:round"
         id="path47" />
      <path
         d="m 282.626,95.838 h 6.056 c 2.338,0 5.282,2.6403 5.282,6.074 v 29.022 0 h -6.057 c -2.338,0 -5.281,-2.641 -5.281,-6.075 z"
         style="stroke-width:15.3542;stroke-linecap:square;stroke-linejoin:round"
         id="path48" />
      <path
         d="m 316.736,99.8875 h 5 c 2.806,0 6.338,1.3205 6.338,3.0375 v 23.959 0 h -5 c -2.806,0 -6.338,-1.32 -6.338,-3.037 z"
         style="stroke-width:15.3542;stroke-linecap:square;stroke-linejoin:round"
         id="path49" />
      <path
         d="m 350.846,103.937 h 3.944 7.395 v 18.898 h -10e-4 -3.944 -7.394 z"
         style="stroke-width:15.3542;stroke-linecap:square;stroke-linejoin:round"
         id="path50" />
    </g>
  </g>
  <g
     inkscape:groupmode="layer"
     id="layer5"
     inkscape:label="Geomorph-Top"
     style="display:inline"
     transform="translate(-16.27893,-17.385727)">
    <path
       id="path1-1-5"
       style="display:inline;fill:none;stroke:#e6e6e6;stroke-width:3.02382"
       inkscape:label="geo2h"
       d="M 128.00343,18.897638 18.897652,207.87393 H 455.32073 L 346.21496,18.897638 Z"
       sodipodi:nodetypes="ccccc" />
  </g>
</svg>
